<?xml version="1.0" standalone="no"?>
<!DOCTYPE svg PUBLIC "-//W3C//DTD SVG 1.1//EN" "http://www.w3.org/Graphics/SVG/1.1/DTD/svg11.dtd" >
<svg xmlns="http://www.w3.org/2000/svg">
<metadata>Generated by IcoMoon</metadata>
<defs>
<font id="hy_font" horiz-adv-x="1024">
<font-face units-per-em="1024" ascent="960" descent="-64" />
<missing-glyph horiz-adv-x="1024" />
<glyph unicode="&#x20;" horiz-adv-x="512" d="" />
<glyph unicode="&#xe900;" glyph-name="product" d="M327.859 225.198l184.076 153.403-265.896 164.173-181.928-145.873 263.748-171.703zM511.936 378.611l184.616-153.408 263.209 171.703-181.926 145.868-265.898-164.163zM513.014 345.23v1.084l-0.536-0.541-0.541 0.541v-1.084l-184.077-152.863-79.129 51.671v-58.126l263.205-157.717v-0.536l0.541 0.536 0.536-0.536v0.536l263.748 157.717v58.126l-79.133-51.671-184.613 152.863zM64.111 688.106l181.928-145.332 265.896 163.63-184.076 153.403-263.748-171.701zM696.551 859.806l-184.616-153.403 265.898-163.63 181.926 145.332-263.209 171.701z" />
<glyph unicode="&#xe901;" glyph-name="regional" d="M532.625 121.175c-40.236 46.996-64.6 108.035-64.6 174.782 0 20.438 2.293 40.339 6.614 59.469-9.851 7.155-20.884 14.052-34.856 14.57-21.371 0.832-52.601-18.076-52.601-3.501 0 46.921-4.747 80.402-5.726 93.773-0.79 10.745-7.022 3.625 21.868 2.927 15.724-0.418 8.043 31.58 23.605 32.827 15.285 1.214 51.708-14.303 60.988-8.123 3.483 2.329 14.503-20.699 26.398-41.111 10.082 14.84 21.615 28.609 34.387 41.122-1.062 10.105-1.277 20.274 2.584 27.328 28.918 52.841 55.995 95.91 53.564 102.216-1.379 3.545-29.59 6.472-52.164-1.1-7.611-2.543 2.424-14.477-8.515-17.024-40.989-9.457-77.206 11.058-64.523 30.337 12.987 19.765 60.044 8.622 64.162 48.264 2.377 22.712 4.341 49.012 5.658 68.562 55.17-8.629 49.096 71.595-32.934 80.183 165.948-1.945 306.569-109.112 358.175-257.851-2.607 2.377-5.647 3.825-9.152 4.18-21.274 53.133-68.58 27.713-68.729-15.070 32.904-7.513 63.507-21.062 90.582-39.423-0.012 1.753-0.043 3.476-0.094 5.167 0.423-1.976 0.825-3.958 1.216-5.945 28.026-19.215 52.231-43.594 71.226-71.781-1.517 245.849-201.422 444.678-447.809 444.678-247.33 0-447.836-200.348-447.836-447.494 0-228.3 171.081-416.657 392.128-444.067 12.463-2.623 27.635-4.157 45.715-4.157 5.074 0 9.966 0.271 14.692 0.751 42.626 0.438 83.823 6.833 122.804 18.381-51.453 51.534-106.519 106.711-106.825 107.131zM445.409 65.31c-180.283 31.487-317.319 188.655-317.319 377.825 0 27.12 2.824 53.588 8.179 79.119 16.574-17.728 55.651-17.31 65.177 9.177 17.048-10.159 39.957-12.005 39.957-32.321 0-67.021 2.387-138.88 63.291-139.995 1.714-0.019 33.965-12.218 49.31-52.022 5.309-13.76 26.296 0 49.317 0 11.49 0 0-19.358 0-61.22 0-41.703 89.905-105.913 89.905-105.913-0.41-27.606 0.719-49.93 3.012-67.76-20.291 0.378-37.393-2.313-50.83-6.889zM736.403-3.6c4.122-4.122 10.898-4.122 15.061 0 0 0 151.078 151.202 151.444 151.815 31.385 36.606 50.322 84.151 50.322 136.141 0 115.616-93.702 209.317-209.317 209.317s-209.316-93.7-209.316-209.317c0-51.99 18.976-99.535 50.319-136.141 0.448-0.613 151.487-151.815 151.487-151.815v0 0zM743.955 379.893c49.705 0 89.945-40.279 89.945-89.945 0-49.668-40.28-89.945-89.945-89.945-49.667 0-89.946 40.275-89.946 89.945-0.043 49.664 40.236 89.945 89.946 89.945v0 0z" />
<glyph unicode="&#xe902;" glyph-name="order" d="M838.581 844.453h-75.319v-100.421h-502.14v100.421h-75.319c-41.595 0-75.319-33.726-75.319-75.32v-702.993c0-41.594 33.724-75.319 75.319-75.319h652.779c41.598 0 75.319 33.725 75.319 75.319v702.993c-0.001 41.599-33.721 75.32-75.319 75.32v0zM261.121 412.995h401.711v-60.446h-401.711v60.446zM763.262 191.673h-502.14v60.447h502.141v-60.447h-0.001zM763.262 513.421h-502.14v60.448h502.141v-60.448h-0.001zM336.445 794.242h351.491c13.866 0 25.11 11.239 25.11 25.105v50.214c0 13.861-11.244 25.105-25.11 25.105h-351.491c-13.866 0-25.11-11.244-25.11-25.105v-50.214c0-13.865 11.244-25.105 25.11-25.105v0z" />
<glyph unicode="&#xe903;" glyph-name="lastlogin" d="M511.936 890.563c-247.295 0-447.824-200.529-447.824-447.824 0-247.294 200.472-447.825 447.824-447.825s447.824 200.474 447.824 447.825c0 247.295-200.53 447.824-447.824 447.824zM823.713 299.944c-11.011-24.66-39.871-35.704-64.535-24.691l-267.691 119.522c-18.728 8.362-29.592 27.018-28.921 46.311-0.018 0.552-0.042 1.101-0.042 1.657v293.162c0 27.011 21.812 48.861 48.862 48.861 27.007 0 48.858-21.851 48.858-48.861v-264.811l238.774-106.612c24.663-11.012 35.722-39.837 24.694-64.537z" />
<glyph unicode="&#xe904;" glyph-name="firewall" d="M511.918 891.292c-247.337 0-447.807-200.47-447.807-447.806s200.47-447.806 447.807-447.806c247.385 0 447.856 200.471 447.856 447.806 0.001 247.336-200.471 447.806-447.856 447.806zM309.519 130.483l224.872 294.454h-289.014l267.583 267.846 221.721 26.605-255.278-216.513 305.296-0.23-475.179-372.162z" />
<glyph unicode="&#xe905;" glyph-name="costcenter" d="M828.124 758.373c-174.911 174.894-457.469 174.894-632.347 0-174.983-174.923-175.837-458.379-0.865-633.306 174.864-174.903 459.201-174.903 634.108 0 174.928 174.927 174.028 458.383-0.896 633.306v0 0 0zM677.69 466.425v-88.459h-121.183v-35.547h121.184v-87.164h-121.184v-94.39h-97.324v94.39h-120.709v87.164h120.708v35.547h-120.708v88.459h73.443l-111.879 218.080h110.825l71.928-149.445c9.18-19.248 15.603-31.007 19.462-45.63 4.618 15.839 11.020 27.661 19.495 45.63l73.376 149.445h110.772l-113.288-218.080h85.082z" />
<glyph unicode="&#xe906;" glyph-name="slb" d="M817.423 302.948l-32.843 297c44.384 24.451 74.445 71.655 74.445 125.922 0 79.35-64.343 143.696-143.766 143.696-79.377 0-143.721-64.345-143.721-143.696 0-20.221 4.181-39.458 11.713-56.906l-295.531-223.568c-22.847 15.316-50.331 24.253-79.91 24.253-79.4 0-143.697-64.37-143.697-143.769 0-79.377 64.296-143.72 143.697-143.72 70.778 0 129.571 51.128 141.506 118.458l327.359-106.227c-2.823-11.24-4.329-23.004-4.329-35.123 0-79.349 64.343-143.697 143.697-143.697 79.375 0 143.72 64.348 143.72 143.697-0.001 78.938-63.602 142.937-142.339 143.68zM348.919 353.243c-4.042 20.987-12.642 40.347-24.735 57.010l286.649 216.88c26.199-27.688 63.293-44.959 104.427-44.959 7.059 0 13.997 0.518 20.783 1.499l31.98-288.936c-28.974-10.268-53.675-29.56-70.719-54.512l-348.386 113.017z" />
<glyph unicode="&#xe907;" glyph-name="publicip" d="M688.753 579.257c-5.996 1.583-19.762 3.521-50.732 3.521h-101.202v-136.191h102.375c34.387 0 58.773 6.174 72.49 18.341 13.623 12.044 20.244 28.801 20.244 51.214 0 16.027-4.056 29.868-12.045 41.109-7.953 11.206-18.126 18.41-31.129 22.005zM511.925 890.541c-247.335 0-447.814-200.48-447.814-447.814 0-247.335 200.48-447.814 447.814-447.814s447.812 200.479 447.812 447.814c0 247.334-200.479 447.814-447.812 447.814zM359.223 203.663h-74.359v447.246h74.359v-447.246zM770.811 419.211c-24.868-27.076-69.448-40.826-132.491-40.826h-101.503v-174.721h-74.339v447.246h170.86c29.405 0 51.286-1.388 66.92-4.216 22.167-3.7 41.218-10.941 56.499-21.489 15.422-10.69 27.962-25.758 37.323-44.844 9.248-18.928 13.944-39.937 13.944-62.457 0-38.637-12.506-71.831-37.214-98.692z" />
<glyph unicode="&#xe908;" glyph-name="router" d="M287.798 841.001h-52.218v-392.342h104.437v392.342zM762.084 683.399h-26.418v-234.739h52.791v234.739zM914.372 470.997h-804.708c-25.072 0-45.383-20.64-45.383-46.089v-328.391c0-25.448 20.31-46.089 45.383-46.089h804.708c25.053 0 45.382 20.641 45.382 46.089v328.391c0 25.449-20.328 46.089-45.382 46.089zM524.619 207.788h-105.847v105.849h105.848v-105.849zM695.167 207.788h-105.847v105.849h105.848v-105.849zM865.67 207.788h-105.849v105.849h105.849v-105.849z" />
<glyph unicode="&#xe909;" glyph-name="firstpage" d="M814.484 391.55l-289.138 309.93c-0.233 0.233-5.65 6.386-13.294 6.386-8.994 0-13.25-6.154-13.479-6.386l-289.141-309.93h0.529l-23.393-25.158v-342.099c0 0 26.658-0.619 59.571-0.619h149.612c-0.143 1.757-0.225 3.538-0.225 5.333v228.247c0 32.924 24.384 59.622 54.457 59.622h125.861c30.069 0 54.462-26.702 54.462-59.622v-228.247c0-1.798-0.088-3.582-0.233-5.333h147.604c32.917 0 59.601 0.616 59.601 0.616v342.103l-23.392 25.158h0.598zM579.171 832.152c-37.3 37.371-97.82 37.371-135.121 0l-379.938-380.501c14.063-27.41 39.164-48.202 69.423-56.502l359.181 358.151c2.245 2.228 4.439 4.189 6.611 5.834 4.318 3.868 8.484 5.486 12.635 5.327 4.146 0.159 8.312-1.459 12.635-5.327 2.169-1.643 4.365-3.606 6.612-5.834l359.232-358.204c30.121 8.187 55.138 28.755 69.297 55.905l-380.566 381.151z" />
<glyph unicode="&#xe90a;" glyph-name="private" d="M599.376 503.729c34.376 17.565 73.316 27.475 114.569 27.475 31.654 0 61.937-5.849 89.848-16.499-80.53 73.669-183.192 113.931-291.809 113.931-117.113 0-227.232-46.631-310.024-131.208-21.504-21.995-21.614-57.763-0.227-79.866 21.395-22.102 56.189-22.276 77.692-0.231 62.057 63.445 144.627 98.376 232.559 98.376 29.935 0 59.265-4.081 87.391-11.977zM866.776 557.376c10.7-10.464 24.362-15.691 38.032-15.691 14.395 0 28.848 5.846 39.662 17.493 20.938 22.493 20.216 58.26-1.687 79.861-116.449 114.732-269.474 177.946-430.854 177.946-161.7 0-314.731-63.214-430.958-177.885-21.839-21.601-22.569-57.369-1.563-79.866 21.063-22.554 55.835-23.228 77.692-1.697 95.659 94.434 221.69 146.403 354.883 146.403 132.932 0 258.904-52.086 354.793-146.564zM520.046 440.246c-2.683 0.087-5.368 0.146-8.062 0.146-72.305 0-141.538-31.495-189.937-86.447-20.388-23.112-18.701-58.768 3.814-79.75 22.52-21.029 57.191-19.231 77.578 3.882 17.131 19.472 38.228 33.586 61.625 41.623 7.357 45.386 26.82 86.709 54.982 120.545zM467.147 227.109c-13.231-12.464-21.537-30.354-21.537-50.262 0-37.677 29.691-68.222 66.374-68.222 5.013 0 9.892 0.59 14.588 1.675-29.223 32.428-50.143 72.478-59.425 116.808zM851.813 332.657h-265.513c-20.234 0-36.642-16.417-36.642-36.63v-187.302c0-20.231 16.409-36.627 36.642-36.627h265.513c20.254 0 36.654 16.396 36.654 36.627v187.302c0 20.213-16.4 36.63-36.654 36.63v0 0zM733.808 175.849v-32.981c0-8.725-7.076-15.804-15.801-15.804s-15.802 7.079-15.802 15.804v33.644c-17.236 6.745-29.498 23.427-29.498 43.073 0 25.613 20.764 46.355 46.357 46.355 25.617 0 46.357-20.741 46.357-46.355-0.001-20.422-13.269-37.545-31.613-43.736v0 0zM786.042 370.172v-7.869h50.579v7.869c0 65.647-53.421 119.043-119.051 119.043-65.65 0-119.051-53.396-119.051-119.043v-7.869h50.574v7.869c0 37.761 30.718 68.471 68.476 68.471 37.762-0.001 68.475-30.71 68.475-68.471v0 0z" />
<glyph unicode="&#xe90b;" glyph-name="topology" d="M638.335 668.261c0-27.303-22.099-49.382-49.384-49.382h-144.031c-27.278 0-49.378 22.079-49.378 49.382v177.017c0 27.304 22.1 49.377 49.378 49.377h144.031c27.284 0 49.384-22.074 49.384-49.377v-177.017zM638.335 40.201c0-27.308-22.099-49.382-49.384-49.382h-144.031c-27.278 0-49.378 22.074-49.378 49.382v177.012c0 27.305 22.1 49.384 49.378 49.384h144.031c27.284 0 49.384-22.079 49.384-49.384v-177.012zM306.905 40.201c0-27.308-22.105-49.382-49.383-49.382h-144.033c-27.277 0-49.377 22.074-49.377 49.382v177.012c0 27.305 22.1 49.384 49.377 49.384h144.033c27.277 0 49.383-22.079 49.383-49.384v-177.012zM959.719 40.201c0-27.308-22.094-49.382-49.379-49.382h-144.032c-27.276 0-49.378 22.074-49.378 49.382v177.012c0 27.305 22.101 49.384 49.378 49.384h144.032c27.284 0 49.379-22.079 49.379-49.384v-177.012zM158.736 464.079h53.566v-277.311h-53.566v277.311zM811.562 464.079h53.56v-277.311h-53.56v277.311zM490.167 659.928h53.567v-467.020h-53.567v467.020zM202.629 464.079h615.046v-53.56h-615.046v53.56z" />
<glyph unicode="&#xe90c;" glyph-name="website" d="M593.966 108.913v-23.037c0-6.368-5.154-11.522-11.518-11.522h-299.482c-6.364 0-11.522 5.154-11.522 11.522v23.037c0 6.358 5.158 11.512 11.522 11.512h80.63v103.678h-276.449c-12.723 0-23.036 10.319-23.036 23.037v541.37c0 12.723 10.313 23.036 23.036 23.036h714.161c12.719 0 23.037-10.313 23.037-23.036v-267.933c-15.391 4.117-31.393 6.721-47.855 7.632v227.74c0 6.119-4.954 11.079-11.073 11.079h-642.38c-6.118 0-11.076-4.959-11.076-11.079v-476.259c0-6.114 4.959-11.068 11.076-11.068h405.644c1.563-15.326 4.597-30.206 8.949-44.518h-35.812v-103.677h80.63c6.364-0.001 11.518-5.155 11.518-11.513v0zM724.712 525.429v187.729c0 5.537-4.484 10.020-10.015 10.020h-540.937c-5.532 0-10.016-4.483-10.016-10.020v-390.671c0-5.536 4.479-10.015 10.016-10.015h354.525c8.939 108.16 90.871 195.6 196.427 212.957v0zM944.716 322.996c8.284 0 15.098-6.783 15.044-15.119v-30.238c0-8.336-6.813-15.121-15.093-15.121h-18.159c-8.284 0-17.114-6.5-19.599-14.44l-10.402-25.31c-3.905-7.337-2.334-18.185 3.534-24.029l12.894-12.839c5.894-5.894 5.894-15.513 0-21.406l-21.407-21.387c-5.874-5.894-15.488-5.894-21.385 0l-12.812 12.869c-5.869 5.87-16.721 7.469-24.028 3.51l-25.342-10.401c-7.909-2.489-14.435-11.294-14.435-19.6v-18.082c0-8.306-6.839-15.119-15.12-15.119h-30.213c-8.332 0-15.148 6.813-15.148 15.119v18.082c0 8.306-6.469 17.113-14.438 19.6l-25.367 10.401c-7.307 3.959-18.104 2.361-23.948-3.51l-12.89-12.869c-5.87-5.894-15.489-5.894-21.357 0l-21.412 21.387c-5.869 5.868-5.869 15.488 0 21.406l12.865 12.839c5.899 5.844 7.469 16.693 3.567 24.029l-10.455 25.31c-2.463 7.941-11.269 14.44-19.575 14.464h-18.161c-8.306 0-15.119 6.792-15.119 15.121v30.213c0 8.331 6.813 15.119 15.149 15.119h18.133c8.306 0 17.136 6.496 19.597 14.44l10.432 25.337c3.926 7.337 2.331 18.136-3.567 24.029l-12.84 12.863c-5.894 5.87-5.894 15.488 0 21.385l21.386 21.353c5.869 5.899 15.488 5.899 21.357 0l12.89-12.864c5.898-5.869 16.666-7.469 24.003-3.539l25.313 10.377c7.968 2.467 14.438 11.297 14.438 19.629v18.155c0 8.307 6.816 15.12 15.148 15.12h30.211c8.306 0 15.12-6.814 15.12-15.12v-18.155c0-8.307 6.526-17.137 14.435-19.598l25.288-10.407c7.338-3.955 18.162-2.33 24.029 3.539l12.894 12.839c5.869 5.895 15.483 5.895 21.382 0l21.406-21.356c5.895-5.87 5.895-15.488 0-21.406l-12.885-12.841c-5.871-5.898-7.447-16.696-3.541-24.033l10.401-25.313c2.492-7.939 11.292-14.434 19.599-14.434h18.184zM838.906 292.783c0 41.746-33.829 75.569-75.569 75.569-41.744 0-75.599-33.827-75.599-75.569 0-41.767 33.831-75.573 75.599-75.573 41.746 0 75.569 33.805 75.569 75.573z" />
<glyph unicode="&#xe90d;" glyph-name="system" d="M796.875 329.955c-4.797 4.072-7.272 6.397-9.976 8.42-27.797 20.797-37.798 44.283-32.388 82.318 19.844 139.54-93.21 254.483-207.274 266.875-143.887 15.634-262.291-74.93-280.557-213.223-21.811-165.153 123.993-303.297 287.977-271.986 18.414 3.515 30.849-0.446 42.908-13.784 8.537-9.446 19.315-16.876 32.653-28.247-37.556-19.663-38.091-50.461-36.119-82.016 1.939-31.096-3.804-61.046-34.729-73.582-33.748-13.686-71.987-16.539-103.514 3.994-14.49 9.443-21.982 32.809-27.734 51.39-4.357 14.076-0.68 30.567-1.038 45.976-0.563 24.586-11.797 42.78-34.572 52.368-22.741 9.57-43.568 5.479-61.433-11.932-11.038-10.759-21.782-21.836-33.129-32.266-21.982-20.2-52.688-26.093-75.194-9.706-19.671 14.326-37.767 32.33-52.202 51.918-15.815 21.468-9.53 54.62 9.936 75.423 10.489 11.229 22.071 21.448 32.812 32.451 15.668 16.040 21.293 35.449 14.49 56.721-7.098 22.169-23.387 36.016-46.534 39.066-17.765 2.339-35.88 1.87-53.833 2.765-38.761 1.929-61.288 24.454-62.942 63.31-0.514 11.967-0.48 23.988-0.044 35.959 1.439 40.049 26.656 64.813 66.823 65.699 14.552 0.318 29.163-0.573 43.67 0.283 24.152 1.419 43.031 12.638 52.018 35.448 8.938 22.675 3.959 43.675-13.648 61.194-9.695 9.658-19.387 19.333-28.878 29.201-4.113 4.278-8.396 8.635-11.43 13.662-21.183 35.091-8.648 69.99 38.816 108.942 27.616 22.667 61.194 21.543 88.155-3.304 11.326-10.444 21.851-21.763 33.219-32.149 18.214-16.656 39.731-20.323 61.905-10.728 21.234 9.182 33.25 26.069 33.050 50.4-0.132 16.256-0.211 32.575 0.964 48.772 2.284 31.458 22.658 56.007 53.313 60.382 20.074 2.863 41.199 2.829 61.287 0.034 28.88-4.019 49.653-29.59 51.224-59.295 0.911-17.082-0.784-34.337 0.603-51.361 1.942-23.754 12.814-41.981 36.313-51.317 23.701-9.411 43.48-3.294 60.969 13.638 7.381 7.146 14.308 14.767 21.576 22.032 4.836 4.836 9.57 9.892 14.973 14.053 34.323 26.416 72.55 15.267 113.813-32.962 25.149-29.393 23.48-64.301-4.156-91.732-10.926-10.846-22.412-21.34-31.963-33.327-14.898-18.694-19.882-40.382-8.719-62.403 10.456-20.617 28.62-31.101 52.217-31.092 14.562 0.011 29.149 0.519 43.673-0.18 34.644-1.674 59.445-22.236 63.739-55.349 2.398-18.493 2.416-37.832-0.078-56.304-4.446-32.878-30.29-54.14-63.818-55.423-10.265-0.397-20.606-0.753-30.827 0.054-26.662 2.096-48.729-6.191-66.369-29.079v0zM337.455 488.343c21.174-22.205 41.998-44.747 63.592-66.529 41.16-41.521 94.673-42.814 134.317-3.778 40.901 40.265 40.273 92.926-2.609 135.491-21.852 21.682-45.12 41.936-65.815 66.246 55.375 16.496 105.53 7.445 150.46-23.941 71.209-49.76 97.796-133.742 68.747-215.569-5.53-15.575-0.925-23.382 8.929-33.028 53.22-52.106 106.373-104.287 159.019-156.97 30.21-30.236 28.62-66.408-2.902-93.765-25.385-22.025-57.038-21.204-82.794 3.986-53.271 52.083-106.147 104.581-158.423 157.654-12.144 12.326-21.636 15.506-39.545 9.482-70.118-23.598-134.062-9.192-187.499 41.786-50.2 47.886-65.355 107.597-53.123 174.39 2.551 1.511 5.099 3.029 7.646 4.547v0zM811.31 175.536c-17.729-2.101-29.7-11.297-31.308-30.153-1.464-17.16 14.416-32.73 31.861-32.766 17.7-0.029 32.37 14.935 31.357 32.957-1.092 19.395-12.836 28.366-31.91 29.962v0z" />
<glyph unicode="&#xe90e;" glyph-name="forword" d="M908.644 480.019l-325.075 325.231c-11.681 11.681-30.188 12.363-42.671 2.053-7.885-5.785-13.007-15.118-13.007-25.657v-174.492h-239.913c-17.61 0-31.886-14.278-31.886-31.887s14.277-31.886 31.886-31.886h269.152c0.833-0.065 1.674-0.108 2.524-0.108 17.547 0 31.778 14.231 31.778 31.778v132.427l250.393-250.512-250.393-250.513v134.319c0 8.995-3.745 17.112-9.754 22.894-5.779 5.838-13.795 9.457-22.659 9.457h-271.042c-17.61 0-31.886-14.277-31.886-31.887s14.277-31.887 31.886-31.887h239.913v-175.174c0-17.547 14.215-31.778 31.764-31.778 0.234 0 0.462 0.013 0.694 0.018 9.087-0.902 18.489 2.126 25.452 9.091l322.914 323.068c6.243 6.25 9.315 14.471 9.228 22.663 0.080 8.239-3.015 16.501-9.3 22.785zM144.046 752.694c-17.61 0-31.887-14.278-31.887-31.887v-526.137c0-17.61 14.278-31.887 31.887-31.887s31.887 14.277 31.887 31.887v526.137c0.001 17.61-14.277 31.887-31.887 31.887z" />
<glyph unicode="&#xe90f;" glyph-name="business" d="M265.596 397.88c-111.101 0-201.485-90.384-201.485-201.485 0-111.097 90.385-201.482 201.485-201.482 111.097 0 201.481 90.384 201.481 201.482 0 111.101-90.382 201.485-201.481 201.485v0zM265.596 890.574c-111.101 0-201.485-90.385-201.485-201.482 0-111.101 90.385-201.485 201.485-201.485 111.097 0 201.485 90.384 201.485 201.485-0.004 111.096-90.387 201.482-201.485 201.482v0zM758.29 397.88c-111.101 0-201.485-90.384-201.485-201.485 0-111.097 90.384-201.482 201.485-201.482 111.097 0 201.482 90.384 201.482 201.482 0 111.101-90.385 201.485-201.482 201.485v0zM758.29 487.607c111.097 0 201.482 90.384 201.482 201.485 0 111.096-90.384 201.482-201.482 201.482-111.101 0-201.485-90.385-201.485-201.485 0-111.098 90.384-201.482 201.485-201.482v0zM758.29 801.808c62.251 0 112.715-50.465 112.715-112.716 0-62.257-50.464-112.721-112.715-112.721-62.256 0-112.72 50.464-112.72 112.721 0 62.252 50.464 112.716 112.72 112.716v0z" />
<glyph unicode="&#xe910;" glyph-name="cloudservice" d="M903.715 632.961c30.93 0 55.985 25.082 55.985 55.987v117.065c0 30.906-25.055 55.959-55.985 55.959h-783.61c-30.934 0-55.988-25.054-55.988-55.959v-117.065c0-30.905 25.054-55.987 55.988-55.987h559.714v-73.327h-559.714c-30.934 0-55.988-25.054-55.988-55.987v-117.038c0-30.878 25.054-55.987 55.988-55.987h559.714v-74.35h-559.714c-30.934 0-55.988-25.055-55.988-55.988v-117.065c0-30.904 25.054-55.959 55.988-55.959h783.61c30.93 0 55.985 25.055 55.985 55.959v117.064c0 30.934-25.055 55.988-55.985 55.988h-167.909v74.35h167.909c30.93 0 55.985 25.109 55.985 55.987v117.038c0 30.934-25.055 55.987-55.985 55.987h-167.909v73.327h167.909zM293.13 688.948h-117.065v117.065h117.065v-117.065zM293.13 386.608h-117.065v117.038h117.065v-117.038zM293.13 83.217h-117.065v117.065h117.065v-117.065z" />
<glyph unicode="&#xe911;" glyph-name="account" d="M611.009 512.015c-2.653-10.625-5.315-20.186-7.97-29.219-2.654-7.438-5.848-14.877-10.091-22.315-4.251-7.438-8.504-13.28-12.754-17.531-5.842-4.783-10.093-9.566-12.752-14.876-2.123-5.315-4.245-10.624-5.843-16.472-1.594-5.842-3.719-11.689-5.315-17.531-2.122-5.843-5.309-12.221-10.092-18.062-15.409-20.19-26.565-39.318-34.536-57.914-7.439-18.594-12.748-36.658-15.935-54.19-3.186-17.531-3.719-34.535-2.661-51.534 1.598-17.003 4.252-33.471 7.97-49.41 2.663-12.221 6.906-24.442 12.221-37.722 5.315-12.753 13.281-26.566 23.379-39.845 10.092-13.817 23.374-27.098 39.313-39.851 15.94-12.748 36.13-25.502 60.036-37.717-15.94-3.191-34.536-6.378-55.787-9.034-18.061-2.123-40.378-3.719-66.41-5.314-26.567-1.591-56.318-2.655-90.321-2.655-17.532 0-37.722 0.532-60.567 2.127-22.848 1.591-46.752 3.188-71.194 4.779-24.437 2.127-48.346 4.251-71.719 6.906-23.912 2.66-45.161 5.314-64.82 8.502s-36.126 6.374-49.943 9.567c-13.812 3.187-22.313 6.373-25.501 9.028-5.842 5.315-10.625 20.191-13.812 44.628-3.188 24.444-2.128 56.318 3.187 95.637 3.187 21.781 12.221 38.78 26.565 50.468 14.345 11.689 31.348 20.719 50.47 27.629 19.129 6.906 39.318 12.748 60.569 18.596 21.251 5.841 39.317 13.28 55.252 23.373 12.753 7.97 22.316 15.408 29.227 22.315 6.905 6.91 11.156 14.349 13.812 21.255 2.655 7.438 4.251 14.875 4.251 22.845 0 7.966-0.532 16.468-1.064 26.034-1.596 13.812-6.374 24.969-14.344 32.939-8.503 7.97-17.005 15.934-26.566 23.904-5.316 4.25-10.093 10.098-13.812 18.062-4.252 7.971-7.439 15.409-10.098 22.846-3.189 8.502-5.842 18.067-7.972 29.226-4.778 1.589-9.029 3.187-12.748 5.841-3.187 2.654-6.906 6.906-11.158 12.221-4.25 5.309-7.437 13.28-11.156 23.903-3.187 10.098-4.252 19.128-3.719 28.161 1.063 8.498 2.653 15.935 5.309 21.783 2.661 7.438 6.379 13.813 11.158 19.127 0 22.846 1.595 45.162 4.251 68.007 2.661 19.123 6.906 39.845 12.753 62.161 5.841 21.782 14.877 41.441 27.624 58.972 12.221 16.471 24.974 30.284 38.253 40.91 13.819 10.624 27.629 19.128 42.506 24.969 14.878 5.847 29.221 10.098 44.097 12.753 14.877 2.122 28.688 3.718 41.973 3.718 17.531 0 34.003-2.123 49.939-5.841 15.938-4.251 30.815-9.567 44.628-15.941 13.817-6.905 26.032-14.344 36.663-22.314 10.626-8.503 19.123-17.003 26.031-25.501 15.403-19.127 26.567-40.382 33.471-63.755 6.907-23.378 12.216-45.161 15.41-65.884 3.187-23.904 4.777-47.815 4.245-71.72 4.251-3.191 7.439-7.437 10.098-12.219 2.655-4.252 4.779-9.567 5.843-15.941 1.595-6.906 1.595-14.876 0-24.969-1.591-12.752-4.251-22.847-7.972-29.753-4.251-7.437-8.497-12.752-12.748-17.003-7.437-5.844-13.285-9.563-19.128-11.159v0 0zM914.836 276.287h-6.228c-3.115 9.854-7.265 19.401-12.141 28.329l4.876 4.874c17.642 17.644 17.642 46.18 0 63.716l-1.348 1.348c-17.643 17.642-46.179 17.642-63.714 0l-5.499-5.499c-9.030 4.776-18.574 8.614-28.537 11.619v7.889c0 24.904-20.234 45.034-45.037 45.034h-1.865c-24.902 0-45.031-20.129-45.031-45.034v-8.507c-9.554-2.907-18.684-6.749-27.297-11.415l-5.812 5.811c-17.537 17.638-46.175 17.638-63.71 0l-1.353-1.351c-17.536-17.638-17.536-46.174 0-63.711l5.604-5.605c-4.667-8.72-8.717-17.952-11.724-27.604h-8.199c-24.903 0-45.033-20.129-45.033-45.034v-1.87c0-24.903 20.129-45.035 45.033-45.035h7.16c3.010-10.169 6.951-19.922 11.83-29.158l-5.496-5.503c-17.643-17.638-17.643-46.173 0-63.815l1.347-1.348c17.638-17.643 46.174-17.643 63.714 0l4.875 4.879c9.131-4.979 18.884-9.235 28.95-12.351v-6.637c0-24.904 20.239-45.039 45.036-45.039h1.87c24.904 0 45.034 20.135 45.034 45.039v6.119c10.586 3.111 20.651 7.367 30.198 12.556l4.566-4.565c17.535-17.643 46.179-17.643 63.715 0l1.349 1.348c17.641 17.643 17.641 46.178 0 63.815l-4.672 4.67c4.987 9.445 9.136 19.408 12.247 29.886h5.188c24.902 0 45.035 20.236 45.035 45.039v1.864c0.204 25.109-20.029 45.244-44.93 45.244v0zM757.415 158.195c-39.014 0-70.561 31.546-70.561 70.565 0 39.015 31.548 70.56 70.561 70.56 38.913 0 70.566-31.545 70.566-70.56 0-39.019-31.546-70.565-70.566-70.565v0z" />
<glyph unicode="&#xe912;" glyph-name="api" d="M511.296-9.18c-202.471 0-366.441 86.775-366.441 193.615 0 39.59 22.598 76.107 61.102 106.843v151.491c0 133.414 76.474 247.666 185.66 297.020-1.623 8.314-2.528 16.996-2.528 25.855 0 71.226 54.778 129.075 122.206 129.075 67.432 0 122.208-57.847 122.208-129.075 0-8.858-0.906-17.54-2.534-25.855 109.192-49.353 185.662-163.606 185.662-297.020v-151.491c38.508-30.555 61.106-67.254 61.106-106.843 0-106.839-164.15-193.615-366.442-193.615v0zM511.296 313.694c-134.861 0-244.234-57.854-244.234-129.080s109.373-129.075 244.234-129.075c134.862 0 244.235 57.849 244.235 129.075s-109.373 129.080-244.235 129.080v0zM511.296 119.895c-59.657 0-109.191 45.195-119.859 105.035 32.179 14.825 73.761 24.045 119.859 24.045 46.101 0 87.681-9.22 119.855-24.045-10.664-59.66-60.195-105.035-119.855-105.035v0z" />
<glyph unicode="&#xe913;" glyph-name="boundp" d="M511.936 890.564c-247.295 0-447.824-200.529-447.824-447.824 0-247.294 200.472-447.825 447.824-447.825s447.824 200.474 447.824 447.825c0 247.295-200.53 447.824-447.824 447.824zM422.668 235.108c-18.445-18.495-42.925-28.664-68.962-28.664s-50.513 10.169-68.92 28.631l-66.753 66.957c-37.993 38.118-37.993 100.135 0 138.244l164.966 165.477c18.412 18.469 42.89 28.64 68.924 28.64s50.509-10.172 68.917-28.64l66.75-66.955c38.007-38.11 38.007-100.126-0.002-138.245l-1.9-1.906-57.849 44.274 0.987 2.214c10.069 22.583 5.11 49.516-12.336 67.017l-22.242 22.308c-11.304 11.344-26.336 17.592-42.325 17.592s-31.021-6.247-42.326-17.591l-120.464-120.832c-23.347-23.426-23.348-61.529 0-84.943l0.073-0.075 28.111-30.17c11.962-11.992 22.922-17.579 34.484-17.579 13.345 0 28.45 7.695 46.175 23.522l40.467 46.819 50.049-48.027-65.825-68.069zM810.233 445.351l-0.146-0.156-149.225-149.708c-18.411-18.462-42.891-28.63-68.925-28.63s-50.513 10.168-68.924 28.63l-66.745 66.969c-38.005 38.106-38.005 100.122 0 138.245l2.16 2.166 52.235-51.712-0.264-1.571c-0.604-3.582-1.491-6.781-2.273-9.606-3.479-12.545-5.58-20.117 24.528-42.619l0.478-0.358 18.44-30.398c11.277-11.177 26.201-17.328 42.063-17.328 15.985 0 31.015 6.245 42.321 17.584l108.632 112.906c23.385 23.462 23.385 61.567 0.038 84.98l-22.249 22.322c-11.307 11.338-26.338 17.581-42.327 17.581-15.968 0-30.977-6.225-42.279-17.531l-21.767-24.024-48.867 46.841 2.21 2.218c16.333 16.383 25.18 25.614 29.976 30.804l-1.657-0.416 7.826 7.851c18.413 18.469 42.891 28.639 68.927 28.639 26.034 0 50.511-10.171 68.924-28.639l67.063-67.334c0.552-0.767 13.565-19.088 20.206-45.245 8.86-34.898 1.812-66.872-20.38-92.463z" />
<glyph unicode="&#xe914;" glyph-name="traffic" d="M703.257 694.688v28.212h-380.042v-28.212c0 0 57.807-142.129 166.315-207.776v-68.328c0 0-119.643-102.816-166.315-221.059v-32.229h380.041v32.229c-60.627 130.532-166.272 221.059-166.272 221.059v68.328c147.508 112.003 166.273 207.776 166.273 207.776v0zM840.235 747.052v50.796h54.515v96.807h-763.070v-96.808h54.558v-50.796c0-77.512 157.475-289.193 164.842-304.506-7.236-15.197-164.842-226.955-164.842-304.16v-50.718h-54.558v-96.847h763.070v96.847h-54.515v50.718c0 77.511-157.519 287.892-165.926 304.35 8.407 16.464 165.926 226.839 165.926 304.318v0zM785.768 138.385v-50.718h-545.018v50.718c0 55.694 167.010 276.448 167.010 304.35 0 27.906-167.010 248.62-167.010 304.317v50.796h545.060v-50.796c0-55.697-168.398-276.411-168.398-304.317-0.045-27.901 168.356-248.655 168.356-304.35v0z" />
<glyph unicode="&#xe915;" glyph-name="storage" d="M843.668 738.173c0-86.336-149.431-156.324-333.763-156.324s-333.763 69.989-333.763 156.324c0 86.336 149.431 156.324 333.763 156.324s333.763-69.989 333.763-156.324zM194.111 623.176c4.828-3.668 100.623-85.349 316.244-85.349 215.62 0 314.557 84.788 314.557 84.788s3.706 5.839 9.772 5.839c6.066 0 8.985-6.177 8.985-13.925s0-71.012 0-71.012 0.897-37.134-22.911-59.145c-23.807-22.010-90.289-99.577-310.854-99.577-220.559 0-299.019 89.842-299.019 89.842s-34.74 26.355-34.74 71.276c0 44.921 0 72.323 0 72.323s1.796 10.219 8.534 10.219 5.298-2.139 9.433-5.279zM194.111 421.93c4.828-3.67 100.623-85.35 316.244-85.35 215.62 0 314.557 84.788 314.557 84.788s3.706 5.84 9.772 5.84c6.066 0 8.985-6.177 8.985-13.926 0-7.747 0-71.013 0-71.013s0.897-37.134-22.911-59.144c-23.807-22.012-90.289-99.577-310.854-99.577-220.559 0-299.019 89.842-299.019 89.842s-34.74 26.354-34.74 71.274c0 44.921 0 72.324 0 72.324s1.796 10.219 8.534 10.219 5.298-2.137 9.433-5.277zM915.623 84.445h-244.396c-2.79 0.067-5.029 2.282-5.148 5.053v19.969c0 0.15-0.019 0.298-0.023 0.451v0.288h-0.014c-0.389 8.586-7.452 15.431-16.134 15.431h-108.956c-2.377 0.521-4.158 2.632-4.158 5.163v48.128c0 2.924 2.371 5.293 5.297 5.293h2.267v2.548h-68.9v-2.548h2.063c2.925 0 5.296-2.368 5.296-5.293v-48.128c0-2.531-1.782-4.642-4.157-5.163h-108.984c-8.931 0-16.171-7.239-16.171-16.171v-20.762c-0.436-2.301-2.366-4.057-4.743-4.26h-244.567c-14.223 0-25.756-11.738-25.756-26.219 0-14.476 11.533-26.212 25.756-26.212h244.381c2.598-0.157 4.674-2.171 4.928-4.742v-20.28c0-8.932 7.24-16.172 16.171-16.172h280.232c8.671 0 15.726 6.831 16.132 15.401h0.016v0.32c0.004 0.149 0.023 0.297 0.023 0.451v19.936c0.122 2.815 2.424 5.067 5.273 5.067h2.265v0.018h242.007c14.223 0 25.753 11.736 25.753 26.212 0.001 14.482-11.529 26.22-25.752 26.22z" />
<glyph unicode="&#xe916;" glyph-name="total" d="M513.177 383.565l-330.634 278.606c-147.097-175.853-117.946-425.985 57.566-573.651 175.793-147.886 438.241-125.346 586.187 50.391 83.549 99.249 112.529 208.9 90.442 327.185l-403.56-82.531zM773.139 791.645c-1.974 1.751-3.896 3.5-5.929 5.254-175.798 147.947-438.19 125.35-586.132-50.501-0.284-0.286-0.509-0.566-0.737-0.849l324.364-272.957 268.435 319.054zM825.787 737.13l-284.989-294.25 392.942 119.247c-17.059 79.313-57.96 134.896-107.954 175.003v0z" />
<glyph unicode="&#xe917;" glyph-name="bucket" d="M510.227 894.739c-172.173 0-311.747-64.019-311.747-142.99 0-27.585 17.048-53.34 46.549-75.184-7.972 10.149-12.27 20.931-12.27 32.106 0 60.163 124.358 108.935 277.764 108.935 153.41 0 277.766-48.771 277.766-108.935 0-10.818-4.040-21.265-11.532-31.129 28.695 21.634 45.219 47.034 45.219 74.207 0 78.971-139.572 142.99-311.749 142.99zM181.531 684.392c0 0-17.663-143.528-18.547-162.436 0 0 113.789-117.744 347.244-117.744s346.065 107.001 346.065 107.001-4.221 118.486-19.873 173.178c0 0-55.641-115.166-326.782-115.166-264.075 0-328.107 115.166-328.107 115.166zM679.432 729.084c0-13.528-29.212-24.494-65.246-24.494s-65.246 10.966-65.246 24.494c0 13.528 29.212 24.494 65.246 24.494s65.246-10.966 65.246-24.494zM162.985 453.202c0 0-2.208-117.314 9.714-170.171 0 0 114.817-127.628 336.94-127.628 222.124 0 334.73 110.868 334.73 110.868s18.548 135.792 11.924 176.186c0 0-123.48-90.777-340.308-90.777-229.188 0-353 101.522-353 101.522zM185.947 201.813c0 0 118.735-96.688 324.325-96.688 205.591 0 320.849 81.217 320.849 81.217l-7.95-48.342c0 0-8.39-50.925-67.563-83.583s-126.741-63.597-247.075-63.597-261.645 42.971-303.154 124.618c0 0-10.158 23.419-19.432 86.375z" />
<glyph unicode="&#xe918;" glyph-name="disabled" d="M511.936 890.563c-247.295 0-447.824-200.529-447.824-447.824 0-247.294 200.472-447.825 447.824-447.825s447.824 200.474 447.824 447.825c0 247.295-200.53 447.824-447.824 447.824zM733.034 393.879h-442.195c-27.008 0-48.864 21.852-48.864 48.858 0 27.050 21.852 48.862 48.864 48.862h442.195c27.011 0 48.861-21.812 48.861-48.862 0-27.007-21.85-48.858-48.861-48.858z" />
<glyph unicode="&#xe919;" glyph-name="custom" d="M510.415 776.843c-139.219 0-252.054-110.466-252.054-246.767 0-136.288 112.835-246.768 252.054-246.768 139.224 0 252.060 110.481 252.060 246.768 0 136.301-112.837 246.767-252.060 246.767v0 0zM219.368 435.35v227.822c-3.19 0-6.354-0.131-9.481-0.381 51.651 112.131 166.692 190.221 300.567 190.221 133.869 0 248.914-78.092 300.56-190.221-3.12 0.25-6.278 0.381-9.475 0.381v-227.822c64.286 0 116.441 51.007 116.441 113.907 0 42.719-24.056 79.945-59.629 99.441-50.053 140.999-186.711 242.268-347.898 242.268s-297.834-101.264-347.892-242.253c-35.583-19.495-59.633-56.727-59.633-99.455-0.001-62.902 52.114-113.907 116.44-113.907v0 0zM761.943 304.749c-65.867-60.182-154.291-97.028-251.529-97.028-97.050 0-185.33 36.71-251.152 96.69-117.81-59.347-195.151-164.979-195.151-308.475h895.67c-0.001 143.763-78.785 249.524-197.839 308.812v0 0z" />
<glyph unicode="&#xe91a;" glyph-name="cuscenter" d="M637.33 717.152c0 0-78.975 2.345-125.764-53.547-46.899-55.896-71.185-165.282-49.307-245.516 21.876-80.177 85.388-111.845 74.333-157.951v-46.214c0 0-83.842-12.142-141.11-63.224-57.212-51.143-100.966-75.138-113.108-157.836h675.72c0 0 21.991 89.685-94.665 152.969 0 0-145.865 70.437-160.468 72.959-14.606 2.345-3.038 80.12-3.038 80.12s34.594 7.332 66.205 89.968c31.614 82.757 46.215 284.461-128.797 328.272v0zM363.242 160.494h-298.201c0 0-13.060 94.149 58.3 145.921 71.298 51.886 168.542 71.359 178.276 85.905 9.739 14.658 30.869 66.487 8.135 97.3-22.682 30.812-85.218 89.168-73.881 246.315 0 0-7.157 69.698 59.33 121.584 66.435 51.886 138.935 32.070 185.612 14.545 41.005-15.35 90.428-97.531 59.33-119.636-36.308-25.714-69.757-74.623-92.664-105.606-17.582-23.878-39.8-55.092-45.358-122.327-6.868-82.467 4.068-133.95 21.077-169.461 18.898-39.798 68.036-61.45 55.036-100.392-12.884-38.941-114.994-94.148-114.994-94.148v0z" />
<glyph unicode="&#xe91b;" glyph-name="view" d="M511.935 610.503c-110.038 0-223.078-133.268-237.008-167.766 13.85-34.504 126.89-167.752 237.008-167.752 109.745 0 222.903 133.147 237.007 167.752-14.143 34.597-127.261 167.766-237.007 167.766zM511.94 363.129c-44.549 0-80.614 35.635-80.614 79.609 0 43.956 36.065 79.608 80.614 79.608 44.558 0 80.611-35.643 80.603-79.608-0.001-43.975-36.045-79.609-80.603-79.609zM511.934 890.564c-247.295 0-447.824-200.529-447.824-447.824 0-247.294 200.472-447.825 447.824-447.825s447.824 200.474 447.824 447.825c0 247.295-200.53 447.824-447.824 447.824zM511.935 219.496c-151.216 0-301.38 185.996-301.38 223.241 0 37.315 150.8 223.244 301.38 223.244 150.174 0 301.379-186.040 301.379-223.244 0-36.979-150.501-223.241-301.379-223.241z" />
<glyph unicode="&#xe91c;" glyph-name="close" d="M1014.662 137.34c-0.004 0.004-0.008 0.008-0.012 0.010l-310.644 310.65 310.644 310.65c0.004 0.004 0.008 0.006 0.012 0.010 3.344 3.346 5.762 7.254 7.312 11.416 4.246 11.376 1.824 24.682-7.324 33.83l-146.746 146.746c-9.148 9.146-22.45 11.566-33.828 7.32-4.16-1.55-8.070-3.968-11.418-7.31 0-0.004-0.004-0.006-0.008-0.010l-310.648-310.652-310.648 310.65c-0.004 0.004-0.006 0.006-0.010 0.010-3.346 3.342-7.254 5.76-11.414 7.31-11.38 4.248-24.682 1.826-33.83-7.32l-146.748-146.748c-9.148-9.148-11.568-22.452-7.322-33.828 1.552-4.16 3.97-8.072 7.312-11.416 0.004-0.002 0.006-0.006 0.010-0.010l310.65-310.648-310.65-310.652c-0.002-0.004-0.006-0.006-0.008-0.010-3.342-3.346-5.76-7.254-7.314-11.414-4.248-11.376-1.826-24.682 7.322-33.83l146.748-146.746c9.15-9.148 22.452-11.568 33.83-7.322 4.16 1.552 8.070 3.97 11.416 7.312 0.002 0.004 0.006 0.006 0.010 0.010l310.648 310.65 310.648-310.65c0.004-0.002 0.008-0.006 0.012-0.008 3.348-3.344 7.254-5.762 11.414-7.314 11.378-4.246 24.684-1.826 33.828 7.322l146.746 146.748c9.148 9.148 11.57 22.454 7.324 33.83-1.552 4.16-3.97 8.068-7.314 11.414z" />
<glyph unicode="&#xe91d;" glyph-name="objectstore" d="M862.138 654.068v181.924c0 27.912-14.342 58.663-47.599 58.663h-660.72c-32.4 0-58.664-26.264-58.664-58.663v-786.525c0-32.399 26.264-58.661 58.664-58.661h64.781l31.771 38.293h523.9l31.763-38.293h64.787c32.402 0 58.664 26.262 58.664 58.661v531.042l-67.347 73.559zM246.429 661.082h-87.428v166.214h87.428v-166.214zM410.064 661.082h-87.43v166.214h87.43v-166.214zM573.7 661.082h-87.434v166.214h87.434v-166.214zM737.335 661.082h-87.433v166.214h87.433v-166.214z" />
<glyph unicode="&#xe91e;" glyph-name="freeacess" d="M612.385 629.77c-34.134 21.354-80.167 10.586-101.401-23.607-21.232-34.259-10.467-80.29 23.73-101.404 34.080-21.054 80.584-10.051 101.461 24.025 20.756 34.080 9.993 79.932-23.79 100.985v0zM511.936 890.563c-247.295 0-447.824-200.529-447.824-447.824 0-247.294 200.472-447.825 447.824-447.825s447.825 200.474 447.825 447.825c0 247.295-200.53 447.824-447.825 447.824v0zM620.714 409.958c-28.369-8.325-56.857-9.931-85.582-2.793-5.235 1.37-7.79 0.234-10.527-4.284-13.44-22.243-27.18-44.186-40.862-66.251-0.947-1.547-1.9-3.036-3.388-5.531 8.326-5.113 15.999-9.455 23.195-14.454 17.129-11.957 24.026-33.602 16.889-52.097-7.434-19.271-26.226-31.163-46.685-28.426-6.897 0.948-13.676 4.099-19.983 7.195-6.779 3.331-12.963 7.851-19.743 12.012-4.701-7.551-8.984-14.512-13.858-22.361 7.61-4.696 15.223-9.038 22.421-13.916 15.463-10.467 22.183-25.456 19.329-43.715-2.854-18.2-13.858-30.452-31.699-35.799-13.263-3.99-25.632-1.072-37.23 5.883-6.483 3.867-12.908 7.971-19.923 12.311-1.784-2.794-3.036-4.932-4.401-7.015-14.333-22.184-40.147-28.964-61.437-16.116-21.471 12.902-27.656 39.488-14.333 62.503 6.72 11.597 14.096 22.9 21.112 34.316 44.962 72.618 89.865 145.293 134.949 217.853 2.912 4.638 2.912 7.432-0.658 11.893-37.765 47.403-47.221 100.214-27.951 157.725 24.56 73.387 106.339 119.897 182.048 104.135 75.47-15.701 126.616-74.637 131.552-151.478 4.579-71.072-44.902-141.486-113.235-161.589v0z" />
<glyph unicode="&#xe91f;" glyph-name="folder" d="M861.794 108.774c0-30.92-25.067-55.978-55.983-55.978h-699.718l97.96 461.811c0 30.915 25.069 55.979 55.98 55.979h643.738c30.915 0 55.978-25.064 55.978-55.979l-97.955-405.833zM218.049 612.572h629.747v54.993c0 30.915-25.065 55.979-55.977 55.979h-335.868v50.717c0 30.912-25.064 55.975-55.977 55.975h-279.883c-30.911 0-55.98-25.069-55.98-55.975v-665.5l97.966 447.814c0 30.93 25.058 55.996 55.972 55.996v0 0z" />
<glyph unicode="&#xe920;" glyph-name="delete" d="M511.936 890.564c-247.295 0-447.824-200.529-447.824-447.824 0-247.294 200.472-447.825 447.824-447.825s447.824 200.474 447.824 447.825c0 247.295-200.53 447.824-447.824 447.824zM689.203 217.134c-13.269 0-25.422 5.401-34.155 14.192l-143.129 143.044-143.031-143.096c-8.8-8.784-20.888-14.19-34.254-14.189-26.649-0.001-48.31 21.616-48.31 48.365 0 13.362 5.403 25.386 14.141 34.12l143.111 143.194-143.083 143.079c-8.755 8.77-14.139 20.857-14.139 34.204 0 26.698 21.647 48.346 48.344 48.345 13.318 0.001 25.404-5.388 34.174-14.141l143.031-143.109 143.125 143.075c8.739 8.74 20.892 14.142 34.16 14.142 26.678 0 48.343-21.613 48.344-48.344 0.001-13.363-5.405-25.451-14.19-34.205l-143.032-143.031 143.047-143.144c8.787-8.735 14.188-20.788 14.188-34.155 0.002-26.727-21.613-48.344-48.343-48.345z" />
<glyph unicode="&#xe921;" glyph-name="set" d="M925.354 511.667h-41.35c-18.971 0-39.041 14.807-44.73 32.906l-23.701 57.676c-8.981 16.695-5.322 41.324 8.049 54.725l29.331 29.302c13.456 13.452 13.456 35.353 0 48.779l-48.754 48.698c-13.427 13.397-35.354 13.397-48.755 0l-29.329-29.301c-13.343-13.4-38.026-17.061-54.748-8.109l-57.595 23.73c-18.070 5.602-32.935 25.729-32.935 44.67v41.409c0 18.915-15.537 34.482-34.427 34.482h-68.878c-18.972 0-34.511-15.567-34.511-34.482v-41.35c0-18.976-14.781-39.098-32.906-44.674l-57.675-23.73c-16.721-9.007-41.324-5.347-54.669 8.079l-29.414 29.307c-13.401 13.366-35.328 13.366-48.698 0l-48.699-48.699c-13.427-13.427-13.427-35.328 0-48.725l29.249-29.332c13.452-13.4 17.086-38.028 8.105-54.724l-23.73-57.732c-5.6-18.1-25.667-32.936-44.669-32.936l-41.324 0.056c-18.941 0-34.481-15.479-34.481-34.451v-68.906c0-18.976 15.54-34.512 34.481-34.512h41.324c19.003-0.030 39.043-14.806 44.589-32.905l23.812-57.68c8.926-16.717 5.292-41.406-8.105-54.776l-29.331-29.276c-13.345-13.427-13.345-35.354 0-48.725l48.78-48.78c13.371-13.403 35.297-13.403 48.698 0l29.358 29.331c13.346 13.398 37.948 17.027 54.583 8.020l57.817-23.757c18.126-5.63 32.906-25.697 32.906-44.644v-41.264c0-18.919 15.453-34.456 34.511-34.456h68.878c18.89 0 34.427 15.537 34.427 34.456v41.264c0 18.947 14.865 39.014 32.935 44.644l57.706 23.757c16.691 9.007 41.38 5.352 54.777-8.020l29.189-29.331c13.427-13.403 35.358-13.403 48.755 0l48.754 48.78c13.456 13.401 13.456 35.328 0 48.725l-29.331 29.276c-13.398 13.4-17.031 38.083-8.049 54.776l23.701 57.68c5.689 18.1 25.814 32.876 44.73 32.876h41.35c18.915 0 34.426 15.538 34.426 34.485v68.963c-0.031 18.939-15.511 34.424-34.426 34.424zM684.256 442.844c0-95.168-77.128-172.241-172.24-172.241-95.143 0-172.272 77.043-172.272 172.241 0 95.085 77.129 172.213 172.272 172.213 95.112 0 172.24-77.129 172.24-172.213z" />
<glyph unicode="&#xe922;" glyph-name="success" d="M511.967 891.585c-247.295 0-447.824-200.529-447.824-447.825 0-247.294 200.472-447.825 447.824-447.825s447.824 200.474 447.824 447.825c0 247.296-200.53 447.825-447.824 447.825zM798.798 556.942l-322.58-322.661c-2.869-2.864-6.094-5.361-9.593-7.437-7.797-5.382-17.25-8.544-27.457-8.544-13.362 0-25.386 5.403-34.12 14.141l-174.452 204.313c-8.74 8.739-14.142 20.892-14.142 34.16 0 26.678 21.613 48.343 48.344 48.344 13.363 0.001 25.451-5.405 34.205-14.19l143.413-167.863 288.069 288.144c8.739 8.74 20.892 14.142 34.16 14.142 26.678 0 48.343-21.613 48.344-48.344 0.001-13.362-5.405-25.45-14.19-34.205z" />
<glyph unicode="&#xe923;" glyph-name="question" d="M511.936 890.563c-247.295 0-447.824-200.529-447.824-447.824 0-247.294 200.472-447.825 447.824-447.825s447.824 200.474 447.824 447.825c0 247.295-200.53 447.824-447.824 447.824zM540.799 141.362c-11.541-11.079-25.536-16.696-41.594-16.696-15.554 0-29.285 5.537-40.81 16.459-11.715 11.094-17.656 25.227-17.656 42.008 0 16.468 5.839 30.502 17.353 41.712 11.423 11.118 25.255 16.757 41.112 16.757 16.090 0 30.104-5.697 41.651-16.933 11.64-11.335 17.542-25.309 17.542-41.536 0-16.504-5.921-30.558-17.597-41.77zM669.598 498.466c-13.703-24.114-36.706-49.617-68.371-75.799-23.601-19.669-39.507-35.267-47.265-46.353-6.897-9.85-10.394-24.468-10.394-43.448v-40.745h-88.002v43.639c0 27.35 5.643 51.364 16.772 71.375 10.906 19.603 30.256 40.292 57.51 61.488 24.307 18.803 41.769 36.415 51.912 52.353 9.62 15.115 14.498 32.868 14.498 52.765 0 20.359-6.996 36.606-21.389 49.672-14.544 13.2-35.012 19.892-60.834 19.892-42.394 0-80.298-16.409-112.659-48.771l-21.398-21.396v110.988l5.891 3.682c42.341 26.463 88.87 39.88 138.292 39.88 49.954 0 90.537-13.535 120.621-40.23 30.514-27.085 45.985-62.912 45.985-106.485-0.001-30.042-7.123-57.802-21.169-82.507z" />
<glyph unicode="&#xe924;" glyph-name="rebind" d="M511.925 890.834c-247.428 0-447.814-200.442-447.814-447.815s200.386-447.814 447.814-447.814c247.373 0 447.814 200.441 447.814 447.814s-200.441 447.815-447.814 447.815zM711.951 231.446c-53.512-53.51-124.55-82.979-200.028-82.979-156.063 0-283.030 126.967-283.030 283.030 0 74.523 28.844 144.917 81.219 198.213 51.6 52.508 120.171 82.496 193.388 84.642v67.17l166.864-111.286-166.864-111.22v66.803c-102.925-4.437-186.131-90.975-186.131-194.375 0-107.249 87.277-194.503 194.555-194.503s194.558 87.277 194.558 194.555c0 24.394 19.818 44.24 44.18 44.24 24.394 0 44.239-19.846 44.239-44.24 0.030-75.484-29.428-146.531-82.95-200.051z" />
<glyph unicode="&#xe925;" glyph-name="overview" d="M318.954 119.081h640.765l-125.9 114.94-518.214 0.142-124.556 98.634h-126.938l254.843-213.716zM959.719 330.042l-123.496 114.944-520.618 1.801-121.174 96.975h-130.32l254.843-213.72h640.765zM959.719 549.007l-254.842 213.722h-640.766l251.494-213.578 644.114-0.143z" />
<glyph unicode="&#xe926;" glyph-name="cdn" d="M709.189 700.399h-591.469c-10.619 0-19.228-8.609-19.228-19.228v-671.125c0-10.618 8.609-19.227 19.228-19.227h591.469c10.62 0 19.227 8.609 19.227 19.227v671.126c0 10.619-8.607 19.227-19.227 19.227zM180.443 579.558h296.726v-58.129h-296.726v58.129zM498.92 217.713h-318.477v58.129h318.478v-58.129zM640.425 369.571h-459.982v58.129h459.983v-58.129zM809.76 797.74h-591.469c-10.618 0-19.227-8.609-19.227-19.228v-40.058h549.274c10.618 0 19.226-8.609 19.226-19.227v-631.065h42.195c10.62 0 19.227 8.608 19.227 19.225v671.125c0.001 10.619-8.606 19.228-19.226 19.228zM907.48 894.655h-591.469c-10.618 0-19.227-8.609-19.227-19.228v-40.058h549.274c10.618 0 19.226-8.609 19.226-19.227v-631.066h42.195c10.62 0 19.227 8.608 19.227 19.225v671.126c0.001 10.619-8.606 19.228-19.226 19.228z" />
<glyph unicode="&#xe927;" glyph-name="record" d="M851.858 894.622h-112.973v-508.389l-141.217 112.978-141.221-112.978v508.389h-282.435c-31.209 0-56.489-25.279-56.489-56.49v-790.823c0-31.181 25.28-56.491 56.489-56.491h677.846c31.21 0 56.489 25.309 56.489 56.491v790.824c0 31.21-25.279 56.489-56.489 56.489v0z" />
<glyph unicode="&#xe928;" glyph-name="workorder" d="M617.248 894.655l291.84-269.946h-291.84zM540.307 549.687v344.968h-363.746c-32.606 0-59.037-25.999-59.037-58.074v-788.268c0-32.075 26.431-58.076 59.037-58.076h673.49c32.605 0 59.038 26.001 59.038 58.076v501.374h-368.781zM228.244 509.601h234.081v-85.686h-234.081v85.686zM795.174 205.75h-566.93v85.684h566.93v-85.684z" />
<glyph unicode="&#xe929;" glyph-name="smile" d="M512 960c-282.77 0-512-229.23-512-512s229.23-512 512-512 512 229.23 512 512-229.23 512-512 512zM704 704c35.346 0 64-28.654 64-64s-28.654-64-64-64-64 28.654-64 64 28.654 64 64 64zM320 704c35.346 0 64-28.654 64-64s-28.654-64-64-64-64 28.654-64 64 28.654 64 64 64zM512 128c-116.51 0-218.464 62.274-274.426 155.344l82.328 49.396c39.174-65.148 110.542-108.74 192.098-108.74s152.924 43.592 192.098 108.74l82.328-49.396c-55.962-93.070-157.916-155.344-274.426-155.344z" />
<glyph unicode="&#xe92a;" glyph-name="envelope" d="M959.744 565.828v-396.83c0-21.993-7.83-40.816-23.491-56.477-15.658-15.662-34.484-23.49-56.474-23.49h-735.685c-21.991 0-40.817 7.828-56.476 23.49s-23.49 34.484-23.49 56.477v396.83c14.66-16.327 31.487-30.82 50.479-43.481 120.614-81.965 203.413-139.443 248.393-172.428 18.993-13.995 34.402-24.906 46.23-32.735 11.829-7.828 27.572-15.826 47.23-23.99s37.984-12.243 54.977-12.243h1c16.992 0 35.317 4.079 54.977 12.243s35.403 16.162 47.23 23.99 27.238 18.74 46.231 32.735c56.643 40.983 139.609 98.459 248.894 172.428 18.989 12.994 35.648 27.488 49.976 43.481zM959.744 728.114c0-26.323-8.163-51.477-24.49-75.468-16.327-23.989-36.651-44.48-60.974-61.474-125.278-86.963-203.245-141.107-233.899-162.431-3.332-2.33-10.415-7.415-21.243-15.243-10.827-7.828-19.822-14.161-26.988-18.993-7.165-4.829-15.825-10.245-25.989-16.242-10.162-5.999-19.742-10.496-28.738-13.495-8.995-2.999-17.325-4.497-24.989-4.497h-1c-7.661 0-15.993 1.498-24.989 4.497-8.997 2.999-18.576 7.496-28.738 13.495-10.162 5.997-18.826 11.413-25.989 16.242-7.163 4.832-16.159 11.163-26.989 18.993-10.83 7.828-17.908 12.913-21.242 15.243-30.321 21.325-73.969 51.73-130.943 91.212-56.976 39.482-91.127 63.223-102.456 71.219-20.657 13.995-40.149 33.236-58.475 57.726s-27.488 47.23-27.488 68.221c0 25.988 6.912 47.646 20.741 64.972s33.57 25.989 59.225 25.989h735.685c21.657 0 40.399-7.83 56.226-23.49 15.829-15.66 23.741-34.484 23.741-56.475z" />
<glyph unicode="&#xe92b;" glyph-name="mobile" d="M733.329 894.655h-452.443c-62.49 0-113.066-50.666-113.066-113.066v-677.692c0-62.492 50.666-113.067 113.066-113.067h452.443c62.49 0 113.065 50.662 113.065 113.067v677.692c0.001 62.49-50.66 113.066-113.065 113.066v0zM394.040 809.833c0 15.623 12.622 28.243 28.247 28.243h169.64c15.624 0 28.247-12.62 28.247-28.243v0c0-15.622-12.624-28.245-28.247-28.245h-169.64c-15.625 0.001-28.247 12.624-28.247 28.245v0 0zM507.109 47.405v0 0c-31.247 0-56.58 25.424-56.58 56.579 0 31.246 25.333 56.579 56.58 56.579v0 0c31.245 0 56.578-25.333 56.578-56.579 0-31.155-25.333-56.579-56.578-56.579v0zM789.822 227.731c0-5.914-4.768-10.766-10.769-10.766h-543.887c-5.912 0-10.766 4.762-10.766 10.766v486.599c0 5.917 4.768 10.769 10.766 10.769h543.972c5.916 0 10.769-4.766 10.769-10.769v-486.599h-0.085z" />
<glyph unicode="&#xe92c;" glyph-name="bigdata" d="M858.179 174.127h-325.845v-142.549h244.367v-40.751h-529.467v40.773h244.37v142.545h-325.826c-56.223 0-101.82 45.573-101.82 101.823v509.101c0 56.224 45.614 101.821 101.82 101.821h692.402c56.223 0 101.819-45.612 101.819-101.821v-509.101c0-56.25-45.618-101.841-101.819-101.841v0 0zM919.25 764.703c0 56.229-25.211 81.439-81.434 81.439h-651.695c-56.207 0-81.434-25.233-81.434-81.439v-468.372c0-56.246 25.21-81.477 81.434-81.477h651.668c56.233 0 81.443 25.209 81.443 81.477v468.372h0.018zM735.974 540.699c-13.201 0-25.7 2.711-37.249 7.269l-66.186-94.508c13.547-14.558 21.975-33.882 21.975-55.309 0-45.005-36.448-81.475-81.474-81.475-44.963 0-81.438 36.447-81.438 81.475 0 13.319 3.502 25.722 9.187 36.842l-94.289 108.336c-5.356-1.57-10.875-2.63-16.722-2.63-4.29 0-8.486 0.449-12.522 1.306l-78.788-110.76c6.191-9.551 9.857-20.872 9.857-33.091 0-33.748-27.329-61.116-61.073-61.116-33.742 0-61.132 27.368-61.132 61.116 0 33.74 27.368 61.068 61.112 61.068 6.639 0 12.853-1.301 18.818-3.26l76.505 107.506c-8.531 10.505-13.848 23.704-13.848 38.283 0 33.764 27.331 61.133 61.070 61.133 33.748 0 61.115-27.366 61.115-61.11 0-12.973-4.111-24.945-10.975-34.826l87.973-101.067c12.929 8.615 28.471 13.708 45.169 13.708 8.792 0 17.102-1.73 25.027-4.32l66.444 94.817c-18.732 18.449-30.382 44.048-30.382 72.434 0 56.228 45.573 101.799 101.823 101.799 56.225 0 101.815-45.569 101.815-101.799 0.027-56.245-45.59-101.821-101.815-101.821v0 0z" />
<glyph unicode="&#xe92d;" glyph-name="network" d="M91.381 592.489c0 0 78.859 242.113 349.392 287.909 0 0-41.474-59.636-80.935-154.675 0 0-82.95 9.028-102.384-75.556 0-0.061-88.576-16.038-166.073-57.678zM259.47 601.518c0 0-114.173-24.234-187.465-78.347 0 0-38.096-160.973 53.917-311.489 0 0 94.799-20.791 190.251-11.11 0 0-0.653 59.756 38.097 89.577 0 0-47.045 121.291-35.314 250.366 0.061 0-48.406 11.761-59.485 61.003zM164.019 155.548c0 0 121.106-187.344 402.008-161.626 0 0-99.778 94.978-120.336 125.509 0 0-78.21-19.421-105.168 36.058-0.061 0.060-101.080-15.268-176.505 0.060zM485.091 148.537c0 0 19.375 8.375 26.544 55.538 0 0 156.060 54.827 252.286 201.841 0 0 30.451-2.078 51.841 14.555 0 0 72.756-67.955 107.297-156.756 0 0-67.896-194.236-287.83-256.604-0.061-0.062-98.948 64.448-150.137 141.427zM884.251 682.003c0 0 113.407-130.383 62.272-351.705 0 0-62.979 101.753-94.268 125.335 0 0 28.089 54.588-4.201 94.801 0 0 29.978 58.747 36.197 131.57zM406.17 710.933c0 0 33.239-26.85 34.543-51.38 0 0 140.658-8.734 262.477-85.478 0 0 54.451 44.847 107.059 11.526 0 0 28.972 53.635 35.018 152.18 0 0-108.844 143.331-335.766 148.439 0-0.057-88.578-120.699-103.331-175.287zM367.481 537.486c0 0 65.47-4.158 76.551 73.535 0 0 129.577-12.055 232.905-73.535 0 0-24.884-78.586 39.165-117.015 0 0-64.581-97.477-211.697-167.392 0 0-29.031 67.48-105.168 55.066 0.061 0-30.866 59.574-31.756 229.341z" />
<glyph unicode="&#xe92e;" glyph-name="database" d="M511.611-7.85c-245.711 0-446.342 75.271-446.342 167.452v94.36c0-92.727 200.631-149.998 446.342-149.998 246.431 0 447.075 57.271 447.075 149.998v-94.36c0-92.181-200.644-167.452-447.075-167.452v0zM511.611 159.602c-245.711 0-446.342 75.261-446.342 167.44v94.358c0-92.167 200.631-149.992 446.342-149.992 246.431 0 447.075 57.825 447.075 149.992v-94.358c0-92.179-200.644-167.44-447.075-167.44v0zM511.611 327.042c-245.711 0-446.342 75.275-446.342 167.451v94.359c0-92.181 200.631-149.448 446.342-149.448 246.431 0 447.075 57.267 447.075 149.448v-94.359c0-92.176-200.644-167.451-447.075-167.451v0zM511.611 494.493c-245.711 0-446.342 75.271-446.342 167.45v56.172c0 92.729 200.631 167.45 446.342 167.45 246.431 0 447.075-74.722 447.075-167.45v-56.172c0-92.18-200.644-167.45-447.075-167.45z" />
<glyph unicode="&#xe92f;" glyph-name="checkmark" d="M864 832l-480-480-224 224-160-160 384-384 640 640z" />
<glyph unicode="&#xe930;" glyph-name="shutdown" d="M748.64 750.711c27.676-19.684 52.283-41.979 73.811-66.893 21.527-24.909 39.979-51.822 55.359-80.733 15.374-28.91 27.064-59.507 35.057-91.802 7.999-32.288 11.996-65.044 11.996-98.258 0-57.208-10.919-110.876-32.756-161.005-21.831-50.128-51.357-93.801-88.572-131.014-37.212-37.215-80.884-66.741-131.015-88.576-50.129-21.833-103.796-32.751-161.003-32.751-56.586 0-109.944 10.918-160.080 32.751-50.129 21.835-93.955 51.361-131.473 88.576-37.525 37.213-67.046 80.886-88.575 131.014-21.527 50.129-32.293 103.797-32.293 161.005 0 32.596 3.845 64.584 11.534 95.954 7.684 31.371 18.604 61.2 32.755 89.492 14.146 28.299 31.673 54.748 52.591 79.349 20.912 24.604 44.283 46.75 70.117 66.432 13.536 9.842 28.142 13.531 43.83 11.070 15.682-2.46 28.446-10.15 38.287-23.063 9.841-12.919 13.535-27.374 11.073-43.365-2.46-15.995-10.149-28.909-23.068-38.751-38.753-28.293-68.43-63.051-89.033-104.264-20.609-41.211-30.911-85.496-30.911-132.857 0-40.601 7.69-78.888 23.069-114.872 15.374-35.983 36.443-67.353 63.2-94.11 26.757-26.755 58.127-47.977 94.11-63.66 35.984-15.687 74.271-23.528 114.866-23.528 40.597 0 78.89 7.841 114.871 23.528 35.981 15.683 67.353 36.903 94.109 63.66 26.758 26.756 47.981 58.128 63.662 94.11 15.687 35.985 23.53 74.272 23.53 114.872 0 47.977-11.071 93.337-33.215 136.085-22.145 42.753-53.207 77.964-93.186 105.646-13.535 9.226-21.684 21.836-24.454 37.829-2.763 15.995 0.466 30.752 9.691 44.288 9.227 12.914 21.839 20.761 37.829 23.524 15.99 2.769 30.751-0.46 44.288-9.686v0zM511.516 410.256c-15.991 0-29.677 5.69-41.056 17.067-11.378 11.378-17.067 25.067-17.067 41.061v350.605c0 15.99 5.689 29.828 17.067 41.516 11.379 11.685 25.065 17.531 41.056 17.531 16.607 0 30.601-5.846 41.98-17.531 11.381-11.687 17.072-25.525 17.072-41.516v-350.605c0-15.994-5.691-29.683-17.072-41.061-11.378-11.377-25.373-17.067-41.98-17.067v0z" />
<glyph unicode="&#xe931;" glyph-name="boot" d="M911.325 838.202h-798.69c-31.491 0-57.049-25.499-57.049-57.049v-513.444c0-31.551 25.558-57.049 57.049-57.049h228.197v-114.099h-57.049v-57.049h456.395v57.049h-57.049v114.099h228.197c31.551 0 57.049 25.499 57.049 57.049v513.444c0 31.551-25.499 57.049-57.049 57.049v0zM854.275 324.758h-684.592v399.345h684.592v-399.345zM740.177 381.808c28.579 0 57.049 28.47 57.049 57.049s-28.47 57.049-57.049 57.049c-28.525 0-57.049-28.469-57.049-57.049s28.525-57.049 57.049-57.049v0z" />
<glyph unicode="&#xe932;" glyph-name="CBS" d="M62.73 482.484l310.758 0.191 0.153-0.738 277.853 0.104 0.202 0.915 309.532 0.177v191.862l-284.733-0.177c-20.571-68.997-87.585-117.892-163.929-117.892-76.123 0-143.093 48.969-163.835 118.069l-285.413-0.177-0.587-192.334zM512.567 128.926c59.566 0 112.082 36.437 131.431 88.756l-262.812-0.087c19.377-52.261 71.893-88.669 131.38-88.669zM62.73 452.302v-205.309l898.5 0.324v205.308l-285.056-0.103c-20.898-68.494-87.604-116.977-163.605-116.977-75.891 0-142.627 48.437-163.572 116.858l-286.266-0.101zM951.795 704.512l-201.387 177.105h-476.857l-201.589-177.282 45.715 0.030 167.989 147.734h452.626l167.85-147.616zM62.73 217.477v-221.38l898.5 0.339v221.041l-284.733-0.178c-20.571-68.997-87.585-117.891-163.929-117.891-76.171 0-143.139 48.778-163.82 117.58l-286.002-0.163zM512.567 365.063c59.070 0 111.215 35.835 130.951 87.445l-261.852-0.088c19.765-51.551 71.91-87.357 130.9-87.357z" />
<glyph unicode="&#xe933;" glyph-name="batch" d="M145.035 10.838v0c-33.726 0-61.082 27.354-61.078 61.069v586.303c0 33.73 27.356 61.085 61.082 61.085h586.293c33.712 0 61.069-27.355 61.069-61.085v-586.303c0-33.714-27.356-61.069-61.069-61.069h-586.297zM142.992 609.352v0-488.573c0-28.101 22.774-50.891 50.909-50.891h488.549c28.121 0 50.908 22.79 50.908 50.891v488.573c0 28.112-22.787 50.903-50.908 50.903h-488.549c-28.136 0.001-50.909-22.791-50.909-50.903v0zM349.619 807.833v0c-16.315 0-29.517 13.23-29.517 29.517 0 16.315 13.202 29.526 29.517 29.526h529.289c33.737 0 61.092-27.334 61.092-61.071v-514.534c0-16.301-13.23-29.531-29.526-29.531-16.315 0-29.517 13.23-29.517 29.531v465.68c0 28.112-22.788 50.882-50.909 50.882l-480.428-0.001z" />
<glyph unicode="&#xe934;" glyph-name="release" horiz-adv-x="841" d="M776.598-36.571h-687.607c-24.728 0-44.805 19.966-44.805 44.572v386.283c0 24.611 20.077 44.573 44.805 44.573h74.75v208.002c0 147.702 120.48 267.427 269.049 267.427 148.574 0 269.057-119.726 269.057-267.427 0-24.61-20.082-44.572-44.805-44.572-24.783 0-44.86 19.962-44.86 44.572 0 98.456-80.323 178.283-179.394 178.283-99.067 0-179.329-79.827-179.329-178.283v-208.002h523.136c24.778 0 44.86-19.962 44.86-44.573v-386.283c0-24.606-20.083-44.572-44.86-44.572v0zM432.79 349.711c-49.561 0-89.72-39.896-89.72-89.139 0-32.906 18.224-61.343 44.922-76.781v-86.65c0-24.607 20.077-44.569 44.8-44.569 24.782 0 44.864 19.962 44.864 44.569v86.65c26.696 15.432 44.865 43.875 44.865 76.781 0 49.243-40.166 89.139-89.73 89.139v0z" />
<glyph unicode="&#xe935;" glyph-name="restart" d="M511.979 826.146c-228.7 0-414.77-186.071-414.77-414.769 0-228.699 186.070-414.767 414.77-414.767s414.769 186.069 414.769 414.767c0 228.698-186.070 414.769-414.769 414.769v0zM511.979 115.115c-163.365 0-296.265 132.896-296.265 296.262s132.9 296.264 296.265 296.264c163.367 0 296.264-132.899 296.264-296.264-0.001-163.367-132.898-296.262-296.264-296.262v0zM565.657 606.944h-107.357c-5.944 0-10.773-4.829-10.773-10.773v-369.593c0-5.943 4.83-10.77 10.773-10.77h107.357c5.943 0 10.77 4.828 10.77 10.77v369.594c0 5.943-4.828 10.772-10.77 10.772v0z" />
<glyph unicode="&#xe936;" glyph-name="auto-renewal" d="M939.822 130.369h-119.372v-120.083c0-13.849-11.361-25.084-25.362-25.084h-21.854c-14.006 0-25.361 11.235-25.361 25.084v120.083h-119.378c-14.247 0-25.799 11.425-25.799 25.509v21.586c0 14.084 11.551 25.492 25.799 25.492h119.377v120.099c0 13.854 11.356 25.066 25.361 25.066h21.851c14.006 0 25.366-11.212 25.366-25.066v-120.099h119.372c14.253 0 25.812-11.408 25.812-25.492v-21.586c0-14.084-11.559-25.509-25.812-25.509v0zM521.034 406.39c-3.39-3.771-7.499-6.935-12.76-8.346l-227.86-61.052c-14.526-3.901-29.445 4.724-33.336 19.248l-4.693 17.521c-3.896 14.525 4.724 29.448 19.24 33.327l197.763 52.999c5.143 18.383 21.438 31.98 41.219 32.994l111.497 193.104c7.507 13.009 24.154 17.477 37.176 9.954l15.712-9.064c13.024-7.525 17.482-24.162 9.97-37.19l-117.957-204.3c-2.58-4.472-6.385-7.589-10.602-9.805-3.688-13.176-13.009-23.97-25.37-29.389v0zM881.709 348.12c7.136 29.138 11.325 59.408 11.325 90.735 0 210.456-170.61 381.072-381.067 381.072s-381.058-170.615-381.058-381.072 170.602-381.072 381.058-381.072c31.337 0 61.603 4.196 90.73 11.321v-74.776c-29.318-5.965-59.65-9.126-90.73-9.126-250.537 0-453.643 203.119-453.643 453.652 0 250.555 203.106 453.656 453.643 453.656 250.547 0 453.665-203.102 453.665-453.656 0-31.072-3.156-61.412-9.131-90.735l-74.792 0.001z" />
<glyph unicode="&#xe937;" glyph-name="statistic" d="M883.823 432.72c0 114.603-93.251 207.855-207.855 207.855h-14.888v-222.753h222.743v14.898zM155.022 432.274h110.238l70.093-126.16c0.727-1.216 1.525-2.324 2.469-3.322 0.082 0 0.082 0 0.153-0.073 1.153-1.162 2.524-2.052 4.049-2.76 0.371-0.163 0.798-0.362 1.243-0.508 1.607-0.581 3.332-1.017 5.085-1.017h94.632c33.407-70.23 104.798-118.961 187.591-118.961 114.604 0 207.855 93.233 207.855 207.856v14.806h-192.967v192.966h-14.888c-114.604 0-207.855-93.17-207.855-207.773 0-20.554 3.123-40.381 8.715-59.117h-74.296l-70.165 126.225c-0.28 0.572-0.798 0.872-1.225 1.37-0.581 0.88-1.226 1.752-2.025 2.406-0.654 0.646-1.453 1.089-2.251 1.526-0.872 0.498-1.671 1.016-2.551 1.299-1.016 0.371-2.043 0.518-3.049 0.654-0.645 0.072-1.244 0.371-1.897 0.371h-118.955c-8.215 0-14.888-6.681-14.888-14.897 0.001-8.199 6.673-14.89 14.888-14.89v0zM184.717 491.837c8.216 0 14.898 6.6 14.898 14.807v59.563c0 8.207-6.681 14.806-14.898 14.806-8.198 0-14.797-6.599-14.797-14.806v-59.563c0-8.206 6.599-14.807 14.797-14.807v0zM229.392 491.837c8.207 0 14.897 6.6 14.897 14.807v59.563c0 8.207-6.69 14.806-14.897 14.806-8.216 0-14.889-6.599-14.889-14.806v-59.563c0-8.206 6.673-14.807 14.889-14.807v0zM958.192 749.25v135.821h-892.426v-135.821h29.784v-679.273h-14.896c-8.215 0-14.888-7.629-14.888-16.997 0-9.392 6.673-16.999 14.888-16.999h862.651c8.207 0 14.888 7.608 14.888 16.999 0 9.368-6.681 16.997-14.888 16.997h-14.888v679.273h29.775zM898.713 69.977h-773.466v679.274h773.467v-679.274z" />
<glyph unicode="&#xe938;" glyph-name="content" d="M856.013 883.537h-688.297c-52.316 0-95.204-42.89-95.204-95.204v-688.502c0-52.316 42.889-95.23 95.204-95.23h688.297c52.519 0 95.435 42.914 95.435 95.23v688.502c0 52.314-42.915 95.204-95.435 95.204v0zM879.31 86.342h-734.66v599.607h734.661v-599.607zM385.993 555.519c0-39.389-31.879-71.525-71.32-71.525-39.645 0-71.498 32.135-71.498 71.525 0 39.44 31.853 71.575 71.498 71.575 39.441 0 71.32-32.135 71.32-71.575v0zM445.666 585.38h313.686v-59.672h-313.686v59.672zM385.993 380.819c0-39.44-31.879-71.319-71.32-71.319-39.645 0-71.498 31.879-71.498 71.319 0 39.62 31.853 71.525 71.498 71.525 39.441 0.001 71.32-31.905 71.32-71.525v0zM445.666 410.656h313.686v-59.467h-313.686v59.467zM385.993 206.095c0-39.44-31.879-71.37-71.32-71.37-39.645 0-71.498 31.93-71.498 71.37 0 39.645 31.853 71.525 71.498 71.525 39.441-0.001 71.32-31.88 71.32-71.525v0zM445.666 235.931h313.686v-59.467h-313.686v59.467z" />
<glyph unicode="&#xe939;" glyph-name="fulfillment" d="M942.396 589.408l-56.678-57.3-151.173 152.833 56.678 57.299c20.825 21.137 54.707 21.137 75.637 0l75.642-76.466c20.719-21.036 20.719-55.33-0.105-76.366v0zM301.329 94.13l297.479 61.856 175.316 177.181v-212.616c0-58.644-47.039-106.1-105.064-106.1h-499.116c-58.026 0-105.064 47.457-105.064 106.1v636.612c0 58.645 47.039 106.102 105.064 106.102h499.116c42.274 0 78.538-25.386 95.119-61.65l-402.025-406.38-60.825-301.104zM196.058 147.594h79.368v52.636h-79.368v-52.636zM196.058 279.602h79.368v53.566h-79.368v-53.566zM196.058 412.64h131.072v52.639h-131.072v-52.639zM537.676 730.325h-341.617v-52.636h341.723v52.636h-0.105zM432.4 598.216h-236.342v-53.571h236.448v53.571h-0.106zM455.614 403.006l151.173-152.937-226.708-76.467 75.535 229.404zM847.9 493.877l-203.295-205.572-151.173 152.832 203.29 205.574 151.178-152.834z" />
<glyph unicode="&#xe93a;" glyph-name="certificate" d="M962.124 28.356h1.157c0 0-0.011 0.437-0.033 1.465-0.379-0.49-0.745-0.981-1.125-1.465v0zM599.333 315.74l-3.295 0.702-1.686 33.564v76.28c0 0 48.487 32.375 54.807 80.351 2.409 0.166 4.959 0.389 8.004 0.751 34.867 4.465 60.287 94.547 60.287 94.547s1.68 42.040-19.434 42.040c-2.372 0-26.016-0.346-27.937-1.064l5.396 74.618 0.592 15.995c0 0 0.414 155.201-180.563 156.887-187.775-1.686-152.624-85.143-152.624-85.143 0-0.203 0.068-0.367 0.068-0.532-23.423-14.104-35.212-35.734-35.212-79.894 0-70.666 6.226-85.867 9.526-88.964l-24.424 8.095c0 0-30.28-3.161-27.719-40.284 2.56-37.13 32.43-91.84 67.292-96.303 2.64-0.324 4.918-0.517 7.053-0.682 0.101-58.478 48.983-81.923 48.983-81.923l0.436-72.843-65.417-35.41-193.332-64.033c0 0-69.942-21.683-69.542-112.521l1.315-111.622h535.289c-30.735 39.248-49.061 88.666-49.061 142.358-0.001 54.925 19.181 105.36 51.2 145.028v0zM778.588 356.844c-102.052 0-184.777-82.721-184.777-184.767 0-102.057 82.726-184.777 184.777-184.777 102.056 0 184.782 82.72 184.782 184.777 0 102.046-82.726 184.767-184.782 184.767v0zM897.549 206.071c-46.225-45.331-76.271-76.009-114.199-115.399-0.698-4.626-4.693-7.505-8.133-10.938-4.71-4.715-10.771-11.135-18.096-14.822-9.554-7.026-15.124-5.717-21.071-0.863-4.316 1.874-8.882 5.12-13.69 10.181-23.87 25.144-44.138 42.548-70.302 69.99-21.673 22.737-10.155 32.817 1.287 44.266 22.008 22.003 32.846 8.867 44.799-3.091 22.099-22.094 31.257-31.109 44.729-44.491 45.399 46.284 60.474 63.997 110.928 113.82 23.873 23.568 34.869 11.416 42.086 4.205 10.843-10.843 26.528-28.459 1.662-52.858v0z" />
<glyph unicode="&#xe93b;" glyph-name="centos" d="M771.694 150.351l-206.237 206.237 0.292 0.292-0.267 33.619 33.911-0.269-0.147-0.147 206.089-206.089 70.229 70.229 0.231-175.167-175.167 0.231 71.065 71.065zM899.493 415.369h-291.389v0.41l-23.752 23.378 23.752 23.378v0.41h291.389v99.592l124.025-123.699-124.025-123.699v100.229zM805.203 694.113l-206.089-206.089 0.147-0.147-33.911-0.269 0.267 33.619-0.292 0.292 206.236 206.236-70.616 70.616 175.167 0.231-0.231-175.167-70.679 70.679zM541.247 823.016v-291.935h-47.576v291.935h-99.593l123.699 124.025 123.699-124.025h-100.228zM517.459 506.912l-23.788 24.169h47.576l-23.788-24.169zM469.704 798.587h-100.732l-71.334-71.538 172.066-172.608v244.146zM737.535 727.871l-71.228 71.228-101.025-0.144-0.384-243.721 172.637 172.637zM875.613 487.265v100.732l-71.538 71.334-172.608-172.066h244.146zM805.203 218.27l71.228 71.228-0.144 101.025-243.721 0.384 172.637-172.637zM263.859 727.363l206.237-206.237-0.292-0.292 0.267-33.619-33.911 0.269 0.147 0.147-206.089 206.089-70.229-70.229-0.231 175.167 175.167-0.231-71.065-71.065zM136.059 462.345h291.389v-0.41l23.752-23.378-23.752-23.378v-0.41h-291.389v-99.592l-124.025 123.699 124.025 123.699v-100.229zM230.349 183.601l206.089 206.089-0.147 0.147 33.911 0.269-0.267-33.619 0.292-0.292-206.236-206.236 70.616-70.616-175.167-0.231 0.231 175.167 70.679-70.679zM494.306 54.698v291.935h47.576v-291.935h99.593l-123.699-124.025-123.699 124.025h100.228zM518.094 370.802l23.788-24.169h-47.576l23.788 24.169zM565.849 79.127h100.732l71.334 71.538-172.066 172.608v-244.146zM298.017 149.843l71.228-71.228 101.025 0.144 0.384 243.721-172.637-172.637zM159.94 390.449v-100.732l71.538-71.334 172.608 172.066h-244.146zM230.35 659.444l-71.228-71.228 0.144-101.025 243.721-0.384-172.637 172.637z" />
<glyph unicode="&#xe93c;" glyph-name="ubuntu" d="M602.997 696.883c-35.512 0-69.293-7.586-99.83-21.302l-84.356 146.117c55.522 27.761 118.109 43.428 184.186 43.428 26.359 0 52.114-2.501 77.099-7.256-0.412-4.535-0.632-9.125-0.632-13.771 0-81.992 66.847-148.838 148.838-148.838 32.186 0 62.009 10.307 86.389 27.789 56.677-64.895 93.481-147.492 100.82-238.224l-168.546-5.195c-14.073 121.984-118.246 217.252-243.969 217.252v0zM828.303 737.343c-58.821 0-106.784 47.936-106.784 106.757 0 58.793 47.964 106.757 106.784 106.757s106.784-47.964 106.784-106.757c0-58.821-47.964-106.757-106.784-106.757v0zM357.435 451.348c0-77.621 36.337-146.997 92.876-192.047l-83.448-147.382c-71.959 50.217-127.317 122.671-155.985 207.274 39.305 26.827 65.225 71.987 65.225 123.001 0 53.049-28.009 99.748-70.008 126.107 26.497 89.55 82.569 166.622 156.864 219.781l88.863-143.479c-57.419-44.995-94.388-114.975-94.388-193.256v0zM127.237 335.411c-58.793 0-106.757 47.964-106.757 106.784 0 58.793 47.964 106.757 106.757 106.757 58.848 0 106.784-47.964 106.784-106.757 0-58.821-47.936-106.784-106.784-106.784v0zM602.997 205.813c126.327 0 230.885 96.175 244.188 219.038l168.629-2.666c-6.927-98.676-48.706-188.006-113.079-255.678-20.587 10.775-43.978 16.877-68.716 16.877-78.171 0-142.626-60.772-148.426-137.487-26.717-5.442-54.313-8.328-82.596-8.328-64.785 0-126.217 15.063-180.887 41.807l83.971 146.447c29.768-12.864 62.559-20.010 96.917-20.010v0zM834.020 141.33c58.793 0 106.757-47.964 106.757-106.784 0-58.766-47.964-106.757-106.757-106.757-58.821 0-106.784 47.991-106.784 106.757 0 58.821 47.964 106.784 106.784 106.784v0z" />
<glyph unicode="&#xe93d;" glyph-name="favorable" horiz-adv-x="1025" d="M1012.352 635.657l-66.56 66.56c-21.12-17.408-47.808-28.288-77.312-28.288-67.584 0-122.304 54.72-122.304 122.304 0 29.568 10.88 56.192 28.288 77.376l-65.664 65.664c-15.36 15.488-40.576 15.488-56 0l-109.824-109.76c3.072-0.96 6.016-2.304 8.448-4.736l13.44-13.44c7.744-7.744 7.744-20.224 0-28.032-3.84-3.84-8.896-5.76-13.952-5.76s-10.176 1.92-14.016 5.76l-13.44 13.44c-2.496 2.496-3.84 5.376-4.8 8.448l-507.136-507.2c-15.36-15.36-15.36-40.576 0.064-56l65.536-65.536c21.312 18.112 48.576 29.44 78.72 29.44 67.52 0 122.304-54.72 122.304-122.24 0-30.208-11.328-57.408-29.44-78.72l66.496-66.432c15.424-15.424 40.576-15.424 56 0l505.92 505.92c-1.344 0.832-2.944 1.536-4.096 2.752l-13.504 13.44c-7.68 7.744-7.68 20.224 0 27.968 7.744 7.744 20.288 7.744 28.032 0l13.44-13.44c1.28-1.28 1.92-2.688 2.752-4.16l108.608 108.672c15.552 15.488 15.552 40.576 0 56zM632.064 716.105c-3.904-3.904-8.96-5.76-14.016-5.76s-10.112 1.92-14.016 5.76l-13.44 13.44c-7.744 7.744-7.744 20.224 0 27.968s20.224 7.744 28.032 0l13.44-13.44c7.744-7.744 7.744-20.224 0-27.968zM699.328 648.841c-3.904-3.904-8.96-5.824-14.016-5.824s-10.112 1.92-14.016 5.824l-13.44 13.44c-7.744 7.744-7.744 20.224 0 28.032 7.68 7.744 20.224 7.744 27.968 0l13.504-13.44c7.68-7.744 7.68-20.288 0-28.032zM766.528 581.577c-3.904-3.904-8.96-5.76-14.016-5.76s-10.112 1.92-14.016 5.76l-13.44 13.44c-7.744 7.744-7.744 20.224 0 27.968 7.68 7.744 20.224 7.744 28.032 0l13.44-13.44c7.68-7.68 7.68-20.16 0-27.968zM833.664 514.377c-3.904-3.84-8.96-5.76-14.016-5.76s-10.176 1.92-14.080 5.824l-13.376 13.44c-7.68 7.808-7.68 20.288 0 28.032 7.744 7.68 20.288 7.68 28.032 0l13.376-13.44c7.808-7.872 7.808-20.416 0.064-28.096z" />
<glyph unicode="&#xe93e;" glyph-name="batch-release" d="M657.343 607.113c0 0 13.39 228.784 217.723 275.938v88.486l146.045-146.627-145.463-145.415v88.874c0 0-132.147 17.465-218.305-161.255zM293.724 679.554h291.636v-72.697h-291.636v72.697zM293.724 387.426h437.652v-72.675h-437.652v72.675zM946.773 608.355h-72.623v-438.335h-653.198v654.96l437.675 0.121v72.818h-510.807l0.002-145.137h-145.153l-0.388-800.739h798.942v145.137h145.551v511.177zM728.599 24.881h-653.199v654.961l72.42 0.019 0.010-582.683h580.769v-72.298z" />
<glyph unicode="&#xe93f;" glyph-name="batch-pass" d="M438.327 312.947h149.27v298.548h223.905l-299.501 298.532-297.57-298.532h223.897v-298.548zM923.453 536.859h-74.635c-20.615 0-37.318-18.195-37.318-40.641v-332.534h-597.071v333.586c0 21.864-16.718 39.589-37.325 39.589h-74.635c-20.615 0-37.317-17.725-37.317-39.589v-395.809c0-1.289 0.062-2.562 0.176-3.819-0.104-1.652-0.176-3.311-0.176-4.99 0-42.859 34.681-77.614 77.51-77.743 2.155-0.321 4.363-0.496 6.618-0.496h734.64c2.081 0 4.125 0.144 6.122 0.42 35.253 2.084 63.899 28.717 69.069 63.052 1.077 3.795 1.659 7.827 1.659 12.006v406.326c0 22.445-16.711 40.641-37.318 40.641z" />
<glyph unicode="&#xe940;" glyph-name="track" d="M512 607.086c-80.786 0-146.286-65.499-146.286-146.286s65.499-146.286 146.286-146.286 146.286 65.499 146.286 146.286-65.499 146.286-146.286 146.286zM512 387.657c-40.322 0-73.143 32.821-73.143 73.143s32.821 73.143 73.143 73.143 73.143-32.821 73.143-73.143-32.821-73.143-73.143-73.143zM1024 497.371h-75.001c-17.607 213.107-187.321 382.821-400.428 400.428v75.001h-73.143v-75.001c-213.071-17.607-382.786-187.321-400.428-400.428h-75.001v-73.143h75.001c17.642-213.107 187.357-382.821 400.428-400.428v-75.001h73.143v75.001c213.107 17.607 382.821 187.321 400.428 400.428h75.001v73.143zM548.571 96.944v71.285h-73.143v-71.285c-172.5 17.214-310.071 154.785-327.285 327.285h71.285v73.143h-71.285c17.214 172.5 154.785 310.071 327.285 327.285v-71.285h73.143v71.285c172.5-17.214 310.071-154.785 327.285-327.285h-71.285v-73.143h71.285c-17.214-172.5-154.785-310.071-327.285-327.285z" />
<glyph unicode="&#xe941;" glyph-name="broken-route" d="M686.594 834.504c57.106 57.106 146.787 60.341 199.917 7.212s49.894-142.813-7.213-199.919l-160.469-160.469 56.423-56.423 160.47 160.469c88.358 88.359 91.589 228.389 7.212 312.765s-224.405 81.146-312.764-7.212l-160.469-160.47 56.422-56.423 160.471 160.47zM338.894 101.392c-57.107-57.107-146.789-60.341-199.918-7.213-53.129 53.131-49.893 142.814 7.212 199.92l157.716 157.716-56.423 56.423-157.716-157.716c-88.359-88.36-91.588-228.39-7.212-312.765s224.405-81.147 312.764 7.212l157.716 157.718-56.424 56.423-157.715-157.718zM214.149 546.634c-0.001 0 0.001 0 0 0h-178.452c-19.138 0-34.652 15.515-34.652 34.653 0 19.137 15.516 34.652 34.652 34.652 0.001 0-0.001 0 0 0l178.452-0.001c19.138 0 34.652-15.514 34.652-34.653 0-19.136-15.515-34.651-34.652-34.651zM265.233 669.966c-8.869 0-17.736 3.382-24.503 10.149l-126.185 126.185c-13.532 13.533-13.532 35.474 0 49.007 13.532 13.532 35.473 13.532 49.006 0l126.185-126.185c13.532-13.533 13.532-35.474 0-49.007-6.765-6.766-15.635-10.149-24.503-10.149zM388.565 721.051c-19.138 0-34.653 15.515-34.653 34.652v178.453c0 19.138 15.515 34.652 34.653 34.652s34.652-15.515 34.652-34.652v-178.453c0-19.138-15.514-34.652-34.652-34.652zM628.481-46.149c-19.138 0-34.653 15.514-34.653 34.653v178.45c0 19.138 15.515 34.652 34.653 34.652 19.137 0 34.651-15.514 34.651-34.652v-178.45c0-19.139-15.514-34.653-34.651-34.653zM877.997 57.203c-8.869 0-17.738 3.383-24.503 10.15l-126.185 126.184c-13.533 13.532-13.533 35.473 0 49.006s35.475 13.534 49.006 0l126.185-126.185c13.533-13.533 13.533-35.473 0-49.006-6.766-6.767-15.635-10.149-24.503-10.149zM981.349 306.72h-178.451c-19.138 0-34.652 15.514-34.652 34.651 0 19.138 15.514 34.653 34.652 34.653h178.451c19.139 0 34.653-15.515 34.653-34.653 0-19.137-15.514-34.651-34.653-34.651z" />
<glyph unicode="&#xe942;" glyph-name="link-route" d="M97.191 355.065h797.085v-97.603h32.534v130.137h0.027l-63.447 178.937h-50.507v-32.534h23.521l47.73-146.403h-775.871l47.73 146.403h22.534v32.534h-49.958l-63.447-178.937h-0.465v-244.005h520.545v32.534h-488.011zM276.593 566.536h438.222v-32.534h-438.222v32.534zM211.060 826.808h32.534v-422.943h-32.534v422.943zM747.872 826.808h32.534v-422.943h-32.534v422.943zM113.458 338.797h764.55v-16.267h-764.55v16.267zM650.269 192.394h113.869v32.534h-146.403v-130.136h146.403v32.534h-113.869zM812.94 224.928v-32.534h113.869v-65.068h-113.869v-32.534h146.403v130.136zM715.338 176.127h146.403v-32.534h-146.403v32.534z" />
<glyph unicode="&#xe943;" glyph-name="renewal" d="M321.588 177.829c0 25.788-20.981 46.741-46.847 46.741h-124.89c-25.84 0-46.82-20.952-46.82-46.741 0-25.808 20.981-46.742 46.82-46.742h124.889c25.867 0.009 46.848 20.943 46.848 46.742v0 0zM149.841 660.867h124.889c25.877 0 46.858 20.928 46.858 46.741 0 25.835-20.991 46.726-46.858 46.726h-124.889c-25.829 0-46.81-20.891-46.81-46.726 0-25.813 20.981-46.741 46.81-46.741v0 0zM103.031 442.694c0-25.817 20.981-46.735 46.82-46.735h124.889c25.866 0 46.847 20.91 46.847 46.735 0 25.84-20.981 46.782-46.847 46.782h-124.889c-25.84 0-46.82-20.943-46.82-46.782v0 0zM913.165 37.62v810.232c0 25.822-28.963 46.731-64.616 46.731l-605.024 0.010c-25.877 0-46.818-20.91-46.818-46.741v-46.735h78.023c51.755 0 93.674-41.871 93.674-93.509s-41.92-93.519-93.674-93.519h-78.023v-77.895h78.023c51.755 0 93.674-41.828 93.674-93.477 0-51.629-41.92-93.481-93.674-93.481h-78.023v-77.9h78.023c51.755 0 93.674-41.893 93.674-93.508 0-51.63-41.92-93.537-93.674-93.537h-78.023v-46.68c0-25.84 20.932-46.782 46.818-46.782h605.034c35.643 0.009 64.605 20.96 64.605 46.791v0 0zM769.566 507.413v-64.765h-94.806v-69.347h94.806v-56.289h-94.806v-104.323h-85.637v104.324h-98.040v56.289h98.040v69.347h-98.040v64.765h78.913l-96.283 167.247h82.55l77.738-151.643 80.351 151.643h77.705l-99.241-167.247 76.751-0.001zM848.559-9.162v0z" />
<glyph unicode="&#xe944;" glyph-name="cloud-disk" d="M674.576 240.162h138.945v-111.152h-138.945v111.152zM638.678 699.688c10.847-9.762 10.847-25.603 0-35.355l-138.945-125.048c-5.475-4.891-12.536-7.327-19.668-7.327-7.122 0-14.193 2.435-19.658 7.327l-83.379 75.029c-10.847 9.773-10.847 25.613 0 35.365 10.857 9.773 28.448 9.773 39.326 0l63.711-57.346 119.287 107.355c10.878 9.773 28.468 9.773 39.326 0zM202.166 240.162h416.834v-111.152h-416.834v111.152zM118.798 556.967c0-55.166 49.876-100.038 111.172-100.038h583.561c45.957 0 83.379 33.667 83.379 75.029 0 41.352-37.422 75.019-83.379 75.019-15.319 0-27.783 11.205-27.783 25.020 0 124.117-112.216 225.076-250.106 225.076-123.452 0-228.852-75.561-250.557-179.672-2.456-11.819-13.958-20.394-27.343-20.394h-27.773c-61.296 0-111.172-44.872-111.172-100.038zM840.3 654.683c63.844-11.267 112.175-62.023 112.175-122.725 0-68.961-62.309-125.048-138.945-125.048h-583.561c-91.934 0-166.738 67.313-166.738 150.058s74.804 150.068 166.738 150.068h5.669c35.427 117.097 157.958 200.067 300.003 200.067 160.055 0 291.796-111.285 304.659-252.419zM118.798 129.010c0-30.638 22.605-55.576 50.367-55.576h677.357c29.093 0 55.576 26.483 55.576 55.576v111.152c0 24.529-54.921 55.576-88.577 55.576h-611.354c-32.92 0-83.369-29.799-83.369-55.576v-111.152zM957.684 240.162v-111.152c0-60.252-50.92-111.162-111.162-111.162h-677.357c-58.421 0-105.943 49.855-105.943 111.162v111.152c0 64.479 82.99 111.162 138.945 111.162h611.354c50.828 0 144.163-42.201 144.163-111.162z" />
<glyph unicode="&#xe945;" glyph-name="hard-disk" d="M1016.128 159.808l-124.48 712.896c-6.72 44.16-43.776 78.144-89.536 79.936h-580.16c-46.4-1.856-84.224-36.8-89.984-82.048l-124.16-710.848c-4.672-14.272-7.808-29.248-7.808-45.056 0-80.512 65.536-145.728 146.24-145.728h731.456c80.704 0 146.304 65.216 146.304 145.728 0 15.872-3.2 30.784-7.872 45.12zM402.24 588.416c0 60.288 49.152 109.312 109.76 109.312s109.696-49.024 109.696-109.312c40.448 0 73.152-32.64 73.152-72.96s-32.704-72.96-73.152-72.96h-219.456c-40.32 0-73.088 32.64-73.088 72.96s32.768 72.96 73.088 72.96zM877.696 41.792h-731.456c-40.256 0-73.088 32.64-73.088 72.896 0 40.128 32.832 72.832 73.088 72.832h731.456c40.32 0 73.152-32.704 73.152-72.832 0-40.256-32.832-72.896-73.152-72.896zM841.152 151.040c-20.224 0-36.544-16.32-36.544-36.352 0-20.16 16.384-36.416 36.544-36.416s36.544 16.256 36.544 36.416c0 20.032-16.384 36.352-36.544 36.352z" />
<glyph unicode="&#xe946;" glyph-name="cloud-host" d="M99.871 827.413v-157.785h761.543v157.785h-761.543zM237.282 704.553c-24.374 0-44.148 19.684-44.148 43.968s19.774 43.968 44.148 43.968c24.373 0 44.148-19.684 44.148-43.968s-19.775-43.968-44.148-43.968zM285.353 255.239c0 0 15.731 119.281 152.42 138.537 0.22 0.552 0.448 1.114 0.682 1.683h-338.584v-281.418h227.388c-30.015 29.674-44.695 75.671-41.905 141.198zM594.488 493.264c23.827 27.853 84.681 79.956 193.856 56.973 0 0 35.447-6.131 73.070-32.123v94.438h-761.543v-157.785h375.154c25.439 27.816 63.78 49.676 119.463 38.497zM237.282 486.696c-24.374 0-44.148 19.684-44.148 43.968s19.774 43.968 44.148 43.968c24.373 0 44.148-19.684 44.148-43.968s-19.775-43.968-44.148-43.968zM477.385 114.925c-82.593 2.521-131.684 42.895-127.643 137.789 0 0 17.232 98.323 134.386 104.665 0 0 31.918 122.174 142.209 82.013 0 0 44.448 77.425 153.417 54.485 0 0 100.367-17.206 117.573-127.609 0 0 90.33-34.412 90.33-121.874 0 0 3.737-121.573-115.758-128.991 0 0-287.893-3.528-391.957-0.554-0.866 0.026-1.717 0.050-2.556 0.076z" />
<glyph unicode="&#xe947;" glyph-name="location" d="M787.659 632.535c0 152.023-123.31 275.282-275.311 275.282-152.045 0-275.354-123.259-275.354-275.282 0-50.19 13.705-97.127 37.085-137.656h-0.207l238.369-481.789 238.507 481.789h-0.275c23.517 40.529 37.186 87.466 37.186 137.656zM512.31 550.82c-63.857 0-115.658 51.763-115.658 115.62 0 63.894 51.801 115.692 115.658 115.692 63.926 0 115.687-51.799 115.687-115.692 0-63.857-51.761-115.62-115.687-115.62z" />
<glyph unicode="&#xe948;" glyph-name="topo-gre" horiz-adv-x="1025" d="M510.614-51.197c-276.352 0-505.406 224.829-510.526 501.309-5.186 282.304 220.159 516.673 502.333 522.623l11.010 0.065c276.417 0 505.406-224.832 510.526-501.246 5.25-282.177-220.099-516.671-502.399-522.621l-10.944-0.13zM513.431 905.855l-9.537-0.19c-245.375-5.12-441.342-208.959-436.799-454.274 4.417-240.124 203.327-435.579 443.456-435.579l9.598 0.125c245.379 5.185 441.409 208.959 436.799 454.336-4.415 240.193-203.33 435.582-443.517 435.582zM316.737 728.571v-460.154h460.151v460.154h-460.151zM744.018 301.282h-394.414v394.421h394.414v-394.421zM283.867 235.552v394.414h-32.867v-427.284h427.289v32.87h-394.422zM516.774 537.609l-9.137 109.877-46.41-42.63-47.66 43.88-16.502-15.117 47.657-43.882-46.44-42.662 118.492-9.466zM697.053 647.846l-119.345-8.413 46.275-42.762-47.72-43.877 16.47-15.185 47.655 43.877 46.315-42.792 10.35 109.152zM517.264 443.741l-16.467 15.152-47.657-43.887-46.342 42.83-10.225-109.055 119.347 8.38-46.38 42.73 47.724 43.85zM696.563 363.442l-47.625 43.88 46.34 42.6-118.46 9.455 9.17-109.87 46.345 42.625 47.69-43.88 16.54 15.19z" />
<glyph unicode="&#xe949;" glyph-name="topo-IPSec" d="M512 972.8c-282.688 0-512-229.312-512-512s229.312-512 512-512c282.688 0 512 229.312 512 512s-229.312 512-512 512zM801.664 290.112c9.216 43.136 14.912 89.024 16.768 136.576h135.872c-3.456-47.168-14.336-92.864-32.64-136.576h-120zM222.272 631.488c-9.088-43.264-14.912-88.96-16.768-136.512h-135.936c3.584 47.040 14.464 92.8 32.704 136.512h120zM546.112 699.776v199.744c15.552-4.48 31.040-12.032 46.208-22.72 28.224-19.968 55.36-50.752 78.4-89.024 15.872-26.496 29.632-56 41.216-88h-165.824zM353.28 787.776c22.976 38.272 50.176 68.992 78.4 89.024 15.104 10.688 30.592 18.304 46.144 22.72v-199.744h-165.504c11.392 32 25.088 61.312 40.96 88zM102.272 290.112c-18.24 43.712-29.12 89.344-32.704 136.576h136c1.792-47.552 7.616-93.44 16.768-136.576h-120.064zM477.824 221.824v-199.68c-15.616 4.352-31.040 12.032-46.144 22.656-28.416 20.032-55.424 50.688-78.4 89.152-15.872 26.432-29.568 55.936-41.024 88l165.568-0.128zM670.656 133.824c-22.784-38.336-50.112-68.992-78.4-89.152-15.168-10.56-30.656-18.176-46.208-22.72v199.744h165.76c-11.52-31.872-25.216-61.312-41.152-87.872zM818.432 494.976c-1.792 47.552-7.552 93.312-16.768 136.576h120c18.304-43.776 29.184-89.536 32.768-136.576h-136zM886.080 699.776h-102.4c-19.84 62.656-47.232 117.568-80.32 161.472 45.312-21.696 86.528-50.688 122.304-86.72 23.040-22.848 43.136-48 60.416-74.752zM198.272 774.528c35.904 35.968 77.056 65.024 122.368 86.72-33.024-43.904-60.48-98.816-80.384-161.472h-102.336c17.28 26.752 37.312 51.904 60.352 74.752v0zM137.92 221.824h102.336c19.84-62.656 47.232-117.568 80.384-161.536-45.312 21.696-86.528 50.624-122.368 86.848-23.040 22.656-43.072 47.808-60.352 74.688zM825.664 147.136c-35.84-36.032-76.992-65.216-122.304-86.848 33.088 44.032 60.48 98.88 80.32 161.536h102.4c-17.28-26.88-37.376-52.032-60.416-74.688zM672 423.616h-122.816v-122.816h-74.368v122.816h-122.816v74.368h122.816v122.816h74.368v-122.816h122.816v-74.368z" />
<glyph unicode="&#xe94a;" glyph-name="topo-minitor" horiz-adv-x="1025" d="M510.614-51.197c-276.352 0-505.406 224.829-510.526 501.309-5.186 282.304 220.159 516.673 502.333 522.623l11.010 0.065c276.417 0 505.406-224.832 510.526-501.246 5.25-282.177-220.099-516.671-502.399-522.621l-10.944-0.13zM513.431 905.855l-9.537-0.19c-245.375-5.12-441.342-208.959-436.799-454.274 4.417-240.124 203.327-435.579 443.456-435.579l9.598 0.125c245.379 5.185 441.409 208.959 436.799 454.336-4.415 240.193-203.33 435.582-443.517 435.582zM862.783 437.301c0-47.535-8.685-92.51-26.065-134.935l-8.435-20.7-78.97-13.795c-6.64-24.025-19.675-43.705-39.095-59.040-19.42-15.33-41.66-22.745-66.705-22.23v-13.8c0-4.090-1.275-7.415-3.83-9.97s-5.88-3.835-9.97-3.835h-27.595c-4.090 0-7.41 1.28-9.97 3.835-2.55 2.555-3.835 5.88-3.835 9.97v246.1c0 4.090 1.285 7.415 3.835 9.97 2.56 2.55 5.88 3.83 9.97 3.83h27.595c4.090 0 7.415-1.28 9.97-3.83 2.555-2.555 3.83-5.88 3.83-9.97v-13.8c19.935 0 38.335-5.11 55.205-15.335 16.865-10.225 30.155-23.765 39.87-40.635l29.13 5.37c8.175 27.085 12.26 54.69 12.26 82.8 0 41.907-12.52 81.522-37.56 118.832-25.045 37.312-58.78 67.212-101.205 89.7-42.415 22.49-87.4 33.477-134.93 32.967-47.532-0.512-92.512-11.5-134.935-32.967-42.42-21.468-76.155-51.367-101.2-89.7-25.042-38.333-37.565-78.2-37.565-119.597 0-27.605 4.090-54.95 12.267-82.035l29.132-5.37c9.713 17.38 23 30.925 39.865 40.635 16.867 9.715 35.525 14.82 55.967 15.335v13.8c0 4.090 1.277 7.415 3.833 9.97 2.557 2.55 5.88 3.83 9.967 3.83h26.835c4.088 0 7.412-1.28 9.968-3.83 2.555-2.555 3.83-5.88 3.83-9.97v-246.099c0-4.090-1.275-7.415-3.83-9.97s-5.88-3.835-9.968-3.835h-26.835c-4.087 0-7.41 1.28-9.967 3.835-2.555 2.555-3.833 5.88-3.833 9.97v13.8c-25.042 0-47.532 7.41-67.465 22.23-19.932 14.825-32.71 34.5-38.335 59.040l-78.965 13.795-8.432 20.7c-17.377 42.425-26.067 87.145-26.067 134.17 0 43.445 9.455 85.097 28.367 124.962 18.91 39.867 44.465 74.37 76.665 103.502 32.2 29.135 70.277 52.387 114.232 69.765s89.445 26.068 136.467 26.068c47.020 0 92.765-8.69 137.23-26.068 44.47-17.377 82.29-40.63 113.465-69.765 31.185-29.133 56.74-63.635 76.67-103.502 19.94-39.865 29.65-81.517 29.135-124.962v0.764z" />
<glyph unicode="&#xe94b;" glyph-name="topo-vpn1" d="M670.592 75.264c0-28.288-13.824-51.2-30.912-51.2h-255.36c-17.088 0-30.912 22.912-30.912 51.2v0c0 28.288 13.824 51.2 30.912 51.2h255.232c17.216 0 31.040-22.912 31.040-51.2v0zM202.88 107.584h618.24v-64.64h-618.24v64.64zM1024 224.512h-1024v672.96h1024v-672.96zM66.176 290.752h891.584v540.544h-891.584v-540.544zM895.68 561.024l-217.536 125.44v-64.96h-332.352v64.96l-217.6-125.44 217.6-125.44v64.896h332.352v-64.896z" />
<glyph unicode="&#xe94c;" glyph-name="topo-vpn" d="M512.064-51.072c-282.617 0-511.68 229.191-511.68 511.936s229.063 511.936 511.68 511.936c282.553 0 511.68-229.191 511.68-511.936s-229.127-511.936-511.68-511.936zM512.064 891.348c-237.509 0-430.036-192.592-430.036-430.164s192.528-430.164 430.036-430.164c237.509 0 430.036 192.592 430.036 430.164s-192.528 430.164-430.036 430.164zM726.154 446.404c-43.829 0-82.411 21.627-105.894 54.642l32.632 48.628c10.557-30.136 39.222-51.955 73.262-51.955 42.997 0 77.869 34.487 77.869 77.037s-34.871 77.037-77.869 77.037c-24.57 0-46.196-11.453-60.465-29.049l-0.256 0.192-1.664-2.495c-1.408-1.92-2.751-3.903-4.031-5.951l-55.666-82.603c-0.192 0.448-0.448 0.896-0.64 1.344l-59.889-89.77-7.742-12.861-6.398-9.406-0.384 0.512-18.043-27.065c0.192 0 0.384 0 0.576 0.064l-55.794-82.795c0 0 0 0 0-0.064l-0.192-0.256h-0.064c-9.278-12.669-14.844-28.153-14.844-44.981 0-42.485 34.871-77.037 77.869-77.037s77.869 34.551 77.869 77.037c0 42.549-34.871 77.037-77.869 77.037-1.344 0-2.623-0.128-3.967-0.192l32.44 48.372c57.97-12.861 101.287-63.984 101.287-125.217 0-70.894-58.097-128.352-129.76-128.352s-129.824 57.458-129.824 128.352c0 22.074 5.631 42.805 15.548 60.913l-0.384 0.128 3.903 5.759c2.047 3.199 4.159 6.334 6.462 9.406l82.091 120.738-0.256 0.32 56.050 80.108-0.704 0.512 56.626 83.243c6.014 13.053 14.076 24.89 23.93 35.191l1.152 1.728 0.192-0.256c23.61 23.866 56.434 38.774 92.841 38.774 71.726 0 129.824-57.522 129.824-128.416s-58.097-128.352-129.824-128.352zM440.338 662.798l0.192 0.128 162.071-0.128-79.468-110.5-82.795 110.5zM477.577 487.545l-41.654 53.363c-15.036-54.45-65.264-94.504-125.089-94.504-71.662 0-129.76 57.458-129.76 128.352s58.097 128.416 129.76 128.416c34.743 0 66.223-13.565 89.514-35.575l0.32 0.256 1.408-1.856c7.486-7.23 13.949-15.484 19.387-24.378l87.85-110.5-31.736-43.573zM310.834 651.792c-42.997 0-77.869-34.487-77.869-77.037s34.871-77.037 77.869-77.037c42.997 0 77.869 34.487 77.869 77.037s-34.871 77.037-77.869 77.037z" />
<glyph unicode="&#xe94d;" glyph-name="topo-router" horiz-adv-x="1025" d="M510.616-51.2c-276.352 0-505.408 224.832-510.528 501.312-5.184 282.304 220.16 516.672 502.336 522.624l11.008 0.064c276.416 0 505.408-224.832 510.528-501.248 5.248-282.176-220.096-516.672-502.4-522.624l-10.944-0.128zM513.432 905.856l-9.536-0.192c-245.376-5.12-441.344-208.96-436.8-454.272 4.416-240.128 203.328-435.584 443.456-435.584l9.6 0.128c245.376 5.184 441.408 208.96 436.8 454.336-4.416 240.192-203.328 435.584-443.52 435.584zM540.248 350.848l85.76-85.76-43.84-43.904 210.24-40.704-40.704 210.24-43.904-43.84-85.76 85.76zM483.8 570.88l-85.76 85.76 43.84 43.904-210.24 40.704 40.704-210.24 43.904 43.84 85.76-85.76zM402.008 432.64l-85.76-85.76-43.904 43.84-40.704-210.24 210.24 40.704-43.84 43.904 85.76 85.76zM622.040 489.088l85.76 85.76 43.904-43.84 40.704 210.24-210.24-40.704 43.84-43.904-85.76-85.76z" />
<glyph unicode="&#xe94e;" glyph-name="topo-firewall" d="M416.442 894.785c0 0 17.515-8.179 33.063-39.293s9.337-102.698 3.897-114.369c-5.44-11.67-31.906-83.254-73.147-56.789s-66.916 5.44-66.916 5.44 27.237-6.231 30.343-33.449c3.106-27.237-1.563-61.476-30.343-77.024-28.78-15.567-52.121-68.479-41.241-100.365 10.898-31.906 28.78-50.578 48.244-58.351h92.012c0 0-5.845 54.667 26.253 96.082 32.098 41.435 58.351 54.86 61.264 124.881 0 0 19.849-13.426 25.675-39.679 5.845-26.253-1.177-57.194-18.672-80.534-17.515-23.341 2.874-71.777 20.698-72.356s42.92-9.915 58.081 54.262c0 0 18.094 2.912 26.253-32.677 8.16-35.59 7.581-49.999 7.581-49.999h129.55c0 0-24.517 91.414-68.864 135.78 0 0-9.337-5.845 0.578 58.93s22.183 91.607-9.915 126.039-42.592 29.186-42.592 29.186-51.928-78.2-68.267-78.779c0 0 29.186 49.594 11.092 121.371s-118.456 104.455-154.625 81.693zM384.923 278.98c0-30.073-24.614-54.687-54.687-54.687h-212.168c-30.073 0-54.687 24.614-54.687 54.687v70.948c0 30.073 24.614 54.687 54.687 54.687h212.167c30.073 0 54.687-24.614 54.687-54.687v-70.948zM609.011 68.896c0-30.073-24.614-54.687-54.687-54.687h-436.256c-30.073 0-54.687 24.614-54.687 54.687v70.948c0 30.073 24.614 54.687 54.687 54.687h436.256c30.073 0 54.687-24.614 54.687-54.687v-70.948zM959.139 68.896c0-30.073-24.614-54.687-54.687-54.687h-199.918c-30.073 0-54.687 24.614-54.687 54.687v70.948c0 30.073 24.614 54.687 54.687 54.687h199.918c30.073 0 54.687-24.614 54.687-54.687v-70.948zM959.139 278.98c0-30.073-24.614-54.687-54.687-54.687h-450.261c-30.073 0-54.687 24.614-54.687 54.687v70.948c0 30.073 24.614 54.687 54.687 54.687h450.261c30.073 0 54.687-24.614 54.687-54.687v-70.948z" />
<glyph unicode="&#xe94f;" glyph-name="topo-pptp" horiz-adv-x="1025" d="M510.614-51.197c-276.352 0-505.406 224.829-510.526 501.309-5.186 282.304 220.159 516.673 502.333 522.623l11.010 0.065c276.417 0 505.406-224.832 510.526-501.246 5.25-282.177-220.099-516.671-502.399-522.621l-10.944-0.13zM513.431 905.855l-9.537-0.19c-245.375-5.12-441.342-208.959-436.799-454.274 4.417-240.124 203.327-435.579 443.456-435.579l9.598 0.125c245.379 5.185 441.409 208.959 436.799 454.336-4.415 240.193-203.33 435.582-443.517 435.582zM309.892 491.124h-47.892v181.51h422.229v103.894l140.19-126.337-140.19-126.337-0.475 103.54h-373.19l-0.672-136.27zM705.723 428.711h47.845v-181.555h-422.149v-103.895l-140.267 126.336 140.23 126.295 0.395-103.535h373.192l0.754 136.354zM538.024 519.261l-15.71-14.84 29.365-27.508h-137.575v-39.582h131.64l-23.43-21.96 15.71-14.845 63.45 59.362-63.45 59.373z" />
<glyph unicode="&#xe950;" glyph-name="topo-disk" horiz-adv-x="1025" d="M510.614-51.197c-276.352 0-505.406 224.829-510.526 501.309-5.186 282.304 220.159 516.673 502.333 522.623l11.010 0.065c276.417 0 505.406-224.832 510.526-501.246 5.25-282.177-220.099-516.671-502.399-522.621l-10.944-0.13zM513.431 905.855l-9.537-0.19c-245.375-5.12-441.342-208.959-436.799-454.274 4.417-240.124 203.327-435.579 443.456-435.579l9.598 0.125c245.379 5.185 441.409 208.959 436.799 454.336-4.415 240.193-203.33 435.582-443.517 435.582zM614.833 325.817h86.965v-69.57h-86.965v69.57zM592.364 613.441c6.79-6.11 6.79-16.025 0-22.13l-86.965-78.267c-3.427-3.063-7.847-4.587-12.31-4.587-4.46 0-8.885 1.525-12.305 4.587l-52.185 46.958c-6.792 6.117-6.792 16.035 0 22.14 6.792 6.113 17.805 6.113 24.61 0l39.88-35.895 74.66 67.195c6.809 6.114 17.819 6.114 24.615-0.001zM319.149 325.817h260.894v-69.57h-260.894v69.57zM266.964 524.111c0-34.53 31.22-62.615 69.587-62.615h365.252c28.77 0 52.19 21.070 52.19 46.96 0 25.882-23.42 46.955-52.19 46.955-9.585 0-17.38 7.012-17.38 15.66 0 77.688-70.245 140.877-156.55 140.877-77.27 0-143.24-47.295-156.827-112.457-1.535-7.397-8.735-12.765-17.112-12.765h-17.382c-38.368 0-69.588-28.085-69.588-62.615zM718.558 585.271c39.965-7.052 70.215-38.82 70.215-76.815 0-43.162-39-78.27-86.97-78.27h-365.251c-57.545 0-104.362 42.132-104.362 93.925 0 51.79 46.817 93.927 104.362 93.927h3.547c22.172 73.295 98.865 125.225 187.775 125.225 100.184 0 182.634-69.655 190.684-157.992zM266.964 256.247c0-19.175 14.15-34.78 31.527-34.78h423.961c18.215 0 34.785 16.575 34.785 34.78v69.57c0 15.355-34.37 34.79-55.44 34.79h-382.648c-20.605 0-52.185-18.655-52.185-34.79v-69.57zM792.028 325.817v-69.57c0-37.715-31.865-69.575-69.575-69.575h-423.961c-36.565 0-66.31 31.205-66.31 69.575v69.57c0 40.355 51.942 69.58 86.967 69.58h382.649c31.815 0.005 90.23-26.42 90.23-69.58z" />
<glyph unicode="&#xe951;" glyph-name="topo-minitor2" d="M512 919.73c-253.46 0-458.93-205.47-458.93-458.93s205.47-458.93 458.93-458.93 458.93 205.47 458.93 458.93-205.471 458.93-458.93 458.93zM758.211 329.483l-62.894-12.494c-8.988-36.024-40.573-62.757-79.118-64.495v-6.393c0-6.684-5.222-12.206-11.882-12.206h-19.999c-6.669 0-12.171 5.521-12.171 12.206v183.032c0 6.682 5.501 12.204 12.171 12.204h19.999c6.661 0 11.882-5.521 11.882-12.204v-5.81c31.014-1.448 57.674-19.175 71.586-45.034 9.851 1.163 19.704 2.324 22.895 5.81 5.797 17.151 8.692 35.154 8.692 54.040 0 104.594-92.746 189.428-207.221 189.428-114.478 0-207.511-84.833-207.511-189.428 0-19.464 3.478-38.351 9.563-56.366 5.213-2.034 13.331-2.321 21.448-2.609 13.904 25.272 40.277 42.71 70.714 44.158v5.81c0 6.682 5.512 12.204 12.17 12.204h19.999c6.671 0 12.171-5.521 12.171-12.204v-183.030c0-6.684-5.5-12.206-12.171-12.206h-19.999c-6.66 0-12.17 5.521-12.17 12.206v6.393c-38.256 1.737-70.139 28.757-78.831 65.073l-61.736 11.915c-17.385 32.828-27.246 69.728-27.246 108.656 0 138.010 122.599 249.565 273.599 249.564 150.997 0 273.297-111.556 273.297-249.565-0.001-38.928-9.854-75.828-27.238-108.656z" />
<glyph unicode="&#xe952;" glyph-name="topo-fire01" horiz-adv-x="791" d="M837.851-55.061h-543.951c-11.684 0-21.156 9.358-21.156 20.909v131.444c0 11.546 9.472 20.909 21.156 20.909h543.951c11.687 0 21.156-9.363 21.156-20.909v-131.444c0.001-11.551-9.469-20.909-21.156-20.909v0zM836.34 331.803c11.684 0 21.161-9.371 21.161-20.917v-131.437c0-11.565-9.477-20.917-21.161-20.917h-253.849c-11.679 0-21.156 9.35-21.156 20.917v131.437c0 11.546 9.477 20.917 21.156 20.917h253.849zM837.851 369.138h-543.951c-11.684 0-21.156 9.363-21.156 20.912v131.452c0 11.546 9.472 20.905 21.156 20.905h543.951c11.687 0 21.156-9.356 21.156-20.905v-131.452c0.001-11.547-9.469-20.912-21.156-20.912v0zM228.925 521.502v-131.452c0-11.548-9.469-20.912-21.154-20.912h-253.851c-11.676 0-21.152 9.363-21.152 20.912v131.452c0 11.546 9.472 20.905 21.152 20.905h253.851c11.684 0 21.154-9.36 21.154-20.905v0zM-46.080 331.803h543.959c11.684 0 21.156-9.371 21.156-20.917v-131.437c0-11.565-9.472-20.917-21.156-20.917h-543.959c-11.676 0-21.152 9.35-21.152 20.917v131.437c0.004 11.545 9.476 20.917 21.152 20.917v0zM836.34 753.014c11.684 0 21.161-9.371 21.161-20.917v-131.437c0-11.565-9.477-20.917-21.161-20.917h-253.849c-11.679 0-21.156 9.35-21.156 20.917v131.437c0 11.546 9.477 20.917 21.156 20.917h253.849zM-46.080 753.014h543.959c11.684 0 21.156-9.371 21.156-20.917v-131.437c0-11.565-9.472-20.917-21.156-20.917h-543.959c-11.676 0-21.152 9.35-21.152 20.917v131.437c0.004 11.546 9.476 20.917 21.152 20.917v0zM-46.080 118.2h253.851c11.684 0 21.154-9.363 21.154-20.909v-131.447c0-11.548-9.469-20.909-21.154-20.909h-253.851c-11.676 0-21.152 9.361-21.152 20.909v131.447c0.004 11.545 9.476 20.909 21.152 20.909v0z" />
<glyph unicode="&#xe953;" glyph-name="topo-fire02" horiz-adv-x="791" d="M173.29 798.91l451.205-0.331-83.675 140.605-295.905-1.986-71.626-138.288zM624.177 628.126l-219.314 1.008 0.533 115.912 219.314-1.008-0.533-115.912zM173.819 629.641l184.098-0.595 0.397 115.846-184.826 0.593 0.331-115.845zM266.761 582.84h190.253v-115.912h-190.253v115.912zM623.961 466.369l-120.149 0.456 0.44 115.912 120.151-0.456-0.441-115.912zM404.917 305.138l218.85-0.926 0.331 115.912-219.38 0.794 0.199-115.781zM358.266 305.199l-185.155 0.575 0.358 115.713 185.157-0.575-0.359-115.713zM484.088 142.62l-214.282 0.684 0.371 115.848 214.282-0.685-0.371-115.846zM173.224 259.461h50.376v-115.845h-50.376v115.845zM171.436 584.826h50.376v-115.846h-50.376v115.846zM530.097 258.139h93.537v-115.848h-93.537v115.848zM623.286-20.369l-217.328 0.674 0.359 115.846 217.327-0.675-0.358-115.845zM360.12-19.544l-187.406 0.583 0.358 115.845 187.408-0.581-0.359-115.848zM-49.069 230.533l0.927 260.754-59.049 0.265 122.135 148.349 121.275-149.209-57.923 0.198-1.324-386.596v-0.596l-211.437 0.729 0.397 126.305 84.998-0.199zM839.705 228.15l0.861 260.754 58.982-0.198-121.208 149.143-122.069-148.283 57.857-0.265-1.258-386.596-0.066-0.595 211.503-0.663 0.397 126.372-84.998 0.331z" />
<glyph unicode="&#xe954;" glyph-name="topo-basic01" horiz-adv-x="791" d="M405.791 9.34c-32.672 0-66.419 3.733-100.304 11.095-67.711 14.716-128.199 42.389-179.788 82.25-45.225 34.943-84.651 80.069-117.394 134.322-18.891-27.239-32.617-51.054-41.313-77.841-3.589-11.057-6.798-25.768-1.708-33.051 4.069-5.825 15.188-9.237 32.151-9.866 0.535-0.021 1.080-0.028 1.625-0.028 2.936 0 6.055 0.255 9.356 0.522 3.050 0.248 6.202 0.506 9.489 0.584 0.344 0.009 0.683 0.013 1.019 0.013 18.934 0 33.707-13.039 35.126-31.004 1.452-18.414-11.382-33.925-29.851-36.083-9.463-1.105-18.001-1.643-26.102-1.643-19.174 0-36.009 3.055-51.468 9.343-36.101 14.684-56.31 51.603-50.286 91.868 6.718 44.915 28.796 83.4 49.508 115.122 8.485 13 17.97 26.253 28.195 39.388 1.729 2.223 2.040 2.623 0.824 6.302-55.27 167.090-25.643 318.655 88.059 450.485 72.416 83.96 167.191 133.892 281.697 148.405 19.918 2.524 39.856 3.804 59.261 3.804 97.817 0 190.156-32.434 274.453-96.402 1.765-1.339 2.351-1.339 2.543-1.339 0.358 0 1.209 0.080 2.882 0.613 30.207 9.635 66.124 19.484 103.468 19.484 2.141 0 4.302-0.032 6.421-0.096 15.877-0.477 30.366-2.769 43.067-6.814 41.791-13.315 65.422-54.604 56.189-98.177-2.392-11.312-5.521-22.899-9.299-34.436-5.077-15.488-17.262-25.107-31.8-25.109-3.584 0-7.239 0.586-10.859 1.74-18.595 5.928-27.124 23.826-21.221 44.534l0.097 0.341c2.419 8.482 4.705 16.493 5.941 24.504 0.908 5.901 1.158 13.968-2.8 18.864-2.882 3.565-8.138 5.592-15.622 6.028-3.245 0.189-6.673 0.284-10.192 0.284-14.644 0-29.929-1.65-44.711-3.245l-1.74-0.187c-3.903-0.421-7.902-1.227-12.023-2.219 38.744-43.314 68.172-92.622 87.606-146.85 20.814-58.075 29.298-119.085 25.219-181.339-8.423-128.534-70.355-246.842-169.917-324.589-84.611-66.074-177.403-99.576-275.797-99.576zM314.676 176.721c25.29-34.98 53.473-63.969 85.54-88.020 32.699 24.954 60.83 53.945 85.373 88.020h-170.914zM141.894 177.418c17.923-16.718 44.923-35.473 76.166-52.523 28.393-15.496 56.541-27.42 79.070-33.851-23.070 25.357-43.857 53.87-62.024 85.106-0.419 0.721-0.721 1.115-0.886 1.306-0.242 0.043-0.718 0.1-1.535 0.1l-0.286-0.003c-9.014-0.136-18.881-0.199-31.047-0.199-6.32 0-12.64 0.017-18.96 0.032-6.298 0.016-12.596 0.031-18.894 0.031h-21.606zM567.141 177.090c-0.696-0.475-1.717-1.38-2.312-2.22-4.471-6.315-8.831-13.059-13.048-19.58-6.405-9.904-13.028-20.146-20.567-29.789-8.806-11.259-17.919-21.993-27.415-32.953 57.93 16.295 108.642 44.301 153.691 84.848-10.241 0.022-20.484 0.041-30.725 0.041-23.767 0.001-42.231-0.107-59.623-0.348zM54.139 296.465c9.009-16.153 18.949-33.306 30.297-52.282 38.677 0.112 77.948 0.494 116.095 0.877-20.907 51.196-34.021 104.655-39.798 162.274-40.805-37.715-75.85-74.174-106.594-110.869zM659.076 245.507c19.34 0 35.081-0.332 49.537-1.046 0.579-0.028 1.135-0.044 1.673-0.044 5.373 0 7.087 0.712 11.595 7.725 26.908 41.855 45.209 86.459 54.39 132.577 2.504 12.575 4.018 25.239 5.623 38.648 0.149 1.236 0.297 2.481 0.449 3.734h-141.096c-4.171-63.881-17.81-123.707-41.508-181.969 9.176 0.021 18.455 0.103 27.468 0.186 10.439 0.092 21.231 0.189 31.869 0.189zM275.336 245.423c47.236-0.23 95.284-0.264 141.753-0.296 35.407-0.026 72.016-0.052 108.033-0.164 0.001 0 0.003 0 0.004 0 0.758 0 1.302 0.032 1.682 0.072 0.058 0.14 0.122 0.306 0.189 0.5 3.62 10.234 7.502 20.502 11.255 30.433 7.286 19.276 14.82 39.208 20.462 59.030 8.342 29.286 13.253 60.103 14.637 91.785h-346.346c4.115-64.184 19.725-124.874 46.45-180.555 0.559-0.341 1.377-0.699 1.881-0.805zM18.155 427.422c0.768-17.407 4.859-41.826 9.241-58.577l56.972 58.577h-66.212zM17.867 495.603c25.736-0.021 51.474-0.035 77.211-0.035 19.338 0 38.677 0.008 58.016 0.027 2.966 0.003 4.673 0.169 5.619 0.325 0.222 0.91 0.513 2.547 0.725 5.354 4.71 62.172 18.649 121.859 41.458 177.589-8.584-0.003-17.168-0.018-25.751-0.032-9.375-0.017-18.751-0.032-28.125-0.032-16.539 0-38.375 0.045-60.613 0.392l-0.396 0.003c-1.156 0-1.753-0.087-2.007-0.138-0.16-0.162-0.487-0.529-0.992-1.268-29.443-43.308-49.429-90.906-59.4-141.466-2.325-11.801-3.747-23.82-5.253-36.545-0.163-1.381-0.327-2.772-0.494-4.172zM782.247 496.165c-0.692 7.195-1.374 14.039-2.317 20.71-8.239 58.179-29.551 112.472-63.346 161.367-0.116 0.149-0.378 0.387-0.64 0.591-2.541 0.004-5.085 0.005-7.626 0.005-29.016 0-58.549-0.265-87.11-0.522-7.234-0.065-14.467-0.131-21.701-0.191 23.471-57.017 37.211-116.843 41.803-181.959h140.936zM573.322 496.375c-0.662 46.767-24.151 139.463-44.912 177.458-88.858-48.998-175.55-107.307-263.804-177.458h308.717zM273.933 677.817c-1.334-3.122-2.682-6.249-4.030-9.375-7.701-17.861-15.663-36.33-21.2-54.794-5.152-17.171-9.35-35.080-13.335-52.605l167.896 117.788c-12.141 0.016-24.283 0.027-36.422 0.027-36.7 0-65.201-0.106-92.119-0.341-0.286-0.215-0.591-0.48-0.79-0.699zM175.632 746.262c22.714 0 40.105-0.088 56.392-0.284h0.175c2.014 0 2.179 0 4.887 3.792 18.72 26.192 38.85 53.381 59.864 80.857-57.594-16.299-108.254-44.168-153.453-84.399 0.347 0 0.694 0.001 1.040 0.001 10.524 0.014 20.868 0.032 31.095 0.032zM485.229 746.694c-24.784 34.32-52.819 63.127-85.085 87.468-33.386-25.471-61.397-54.281-85.004-87.468h170.089zM556.623 764.497l47.621 21.677c-31.866 20.079-65.761 35.090-101.28 44.857l53.659-66.534z" />
<glyph unicode="&#xe955;" glyph-name="publicip_line" d="M262.528 697.664h101.696v-489.856h-101.696v489.856zM788.544 659.776c-28.864 25.216-67.456 37.888-115.968 37.888h-210.304v-489.856h101.696v176.128h101.952c53.248 0 94.144 11.968 122.88 35.904 28.672 23.936 43.008 64.768 43.008 122.624 0 52.992-14.4 92.096-43.264 117.312zM710.72 485.952c-12.928-11.776-31.168-17.6-54.464-17.6h-92.288v144.256h92.224c23.296 0 41.536-5.44 54.464-16.32s19.456-29.056 19.456-54.464c0.064-25.472-6.464-44.096-19.392-55.872zM512 972.8c-282.368 0-512-229.696-512-512s229.696-512 512-512 512 229.632 512 512-229.632 512-512 512zM512 9.792c-248.704 0-451.008 202.304-451.008 451.008s202.304 451.008 451.008 451.008 451.008-202.304 451.008-451.008-202.304-451.008-451.008-451.008z" />
</font>
</defs>
</svg>
